<?xml version="1.0" standalone="no"?>
<!DOCTYPE svg PUBLIC "-//W3C//DTD SVG 20010904//EN"
 "http://www.w3.org/TR/2001/REC-SVG-20010904/DTD/svg10.dtd">
<svg version="1.0" xmlns="http://www.w3.org/2000/svg"
 width="638.000000pt" height="638.000000pt" viewBox="0 0 638.000000 638.000000"
 preserveAspectRatio="xMidYMid meet">
<metadata>
Created by potrace 1.14, written by Peter Selinger 2001-2017
</metadata>
<g transform="translate(0.000000,638.000000) scale(0.100000,-0.100000)"
fill="#000000" stroke="none">
<path d="M2208 5513 c12 -2 32 -2 45 0 12 2 2 4 -23 4 -25 0 -35 -2 -22 -4z"/>
<path d="M2245 5450 c-4 -6 17 -10 57 -9 50 1 57 3 33 9 -44 11 -83 11 -90 0z"/>
<path d="M3266 5433 c7 -4 14 -19 17 -33 4 -22 5 -21 4 4 -1 17 -9 31 -17 33
-10 3 -11 2 -4 -4z"/>
<path d="M3060 5380 c0 -38 -4 -50 -15 -50 -10 0 -15 10 -15 33 0 44 -15 67
-23 35 -4 -12 -7 -35 -7 -49 0 -26 -23 -45 -40 -34 -4 3 -11 21 -15 41 -9 49
-17 37 -9 -14 4 -28 13 -43 25 -47 11 -4 19 -14 20 -23 0 -9 5 -3 10 14 9 33
34 51 44 34 4 -6 -2 -11 -12 -11 -10 -1 -5 -4 12 -8 19 -4 32 -14 37 -31 6
-19 7 -16 4 12 -3 21 0 40 5 43 5 4 9 16 9 28 0 18 -2 19 -10 7 -7 -11 -8 -2
-4 28 4 28 3 42 -5 42 -7 0 -11 -20 -11 -50z m-43 -27 c-3 -10 -5 -4 -5 12 0
17 2 24 5 18 2 -7 2 -21 0 -30z"/>
<path d="M3252 5390 c0 -19 2 -27 5 -17 2 9 2 25 0 35 -3 9 -5 1 -5 -18z"/>
<path d="M3346 5394 c-4 -15 -5 -28 -3 -31 3 -2 8 8 11 24 6 21 9 24 17 12 7
-12 9 -11 9 4 0 27 -27 20 -34 -9z"/>
<path d="M3420 5364 c-7 -19 -9 -38 -6 -41 3 -4 6 0 6 8 0 8 7 26 14 42 8 15
11 27 6 27 -5 0 -14 -16 -20 -36z"/>
<path d="M2285 5380 c8 -13 55 -13 75 0 11 7 2 10 -33 10 -30 0 -46 -4 -42
-10z"/>
<path d="M2807 5384 c-4 -4 -7 -12 -7 -18 0 -6 4 -5 9 2 6 11 13 7 30 -16 22
-32 28 -62 11 -62 -6 0 -17 15 -25 33 -8 17 -14 25 -14 17 -1 -8 4 -22 9 -30
7 -11 3 -18 -13 -27 -14 -8 -17 -12 -7 -13 13 0 13 -2 0 -11 -12 -9 -12 -10 3
-5 10 3 26 6 35 7 11 1 8 4 -8 10 -23 8 -22 8 7 6 18 -2 30 0 27 5 -3 4 5 8
18 8 19 0 20 -2 8 -10 -11 -8 -7 -9 15 -4 37 8 45 14 19 14 -15 0 -16 2 -5 9
12 8 12 14 3 33 l-12 23 3 -25 c1 -18 -3 -26 -18 -28 -15 -2 -25 9 -40 40 -20
41 -35 55 -48 42z"/>
<path d="M2901 5374 c0 -11 3 -14 6 -6 3 7 2 16 -1 19 -3 4 -6 -2 -5 -13z"/>
<path d="M3441 5347 c-8 -22 -20 -37 -34 -41 -32 -8 -39 -7 -32 4 3 6 -4 10
-17 11 -13 0 -17 3 -10 6 17 7 15 20 -3 20 -8 0 -15 -6 -15 -14 0 -7 -9 -13
-20 -13 -14 0 -20 7 -21 23 -1 16 -2 18 -6 5 -5 -20 -33 -25 -33 -5 0 8 -3 8
-9 -2 -12 -19 -52 -25 -62 -9 -6 9 -11 9 -21 0 -8 -6 -27 -10 -43 -9 -15 1
-30 -4 -32 -10 -3 -9 8 -13 35 -13 22 0 42 -3 45 -7 2 -5 3 -3 1 3 -2 8 10 10
37 7 33 -5 39 -3 40 13 1 11 5 3 9 -16 4 -19 8 -26 9 -14 1 20 3 20 88 7 47
-7 90 -18 95 -25 6 -10 8 -8 8 5 0 18 11 21 48 10 18 -4 20 -8 10 -14 -10 -7
-9 -9 5 -9 20 0 22 -11 5 -29 -10 -11 -10 -13 0 -7 7 4 12 2 12 -6 0 -10 3 -9
9 2 6 8 7 18 5 22 -7 11 -1 10 32 -2 34 -13 89 5 109 37 9 13 20 23 26 23 7 0
6 -6 -2 -17 -13 -16 -12 -17 3 -4 10 7 15 17 12 22 -9 15 -46 3 -66 -22 -21
-25 -80 -35 -108 -17 -11 7 -10 8 5 4 16 -5 24 2 38 34 19 46 42 56 27 13 -9
-26 -9 -27 5 -9 20 27 19 46 -3 46 -12 0 -26 -15 -38 -39 -17 -36 -20 -38 -46
-29 -24 8 -27 14 -22 36 11 52 17 58 24 27 l8 -30 1 27 c0 15 -4 30 -10 33
-15 10 -39 -27 -33 -49 4 -12 2 -16 -5 -12 -6 4 -11 2 -11 -3 0 -12 -32 -15
-43 -5 -3 3 -1 19 5 35 6 17 8 32 5 35 -3 3 -10 -10 -16 -29z"/>
<path d="M2702 5347 c-8 -10 -6 -21 9 -46 11 -18 17 -36 14 -42 -4 -5 1 -9 9
-9 22 0 20 11 -9 50 -13 18 -22 37 -19 41 7 12 34 -1 34 -17 0 -8 5 -14 11
-14 7 0 6 8 -3 22 -19 28 -32 32 -46 15z"/>
<path d="M2605 5310 c-7 -11 14 -54 23 -46 3 4 0 12 -6 18 -17 17 -15 28 4 28
8 0 13 -4 10 -8 -3 -5 1 -9 9 -9 11 0 12 4 4 14 -13 15 -35 17 -44 3z"/>
<path d="M2755 5273 c0 -24 -4 -28 -27 -26 -16 1 -28 -2 -28 -8 0 -12 36 -12
59 0 10 6 17 20 16 32 -2 33 -21 34 -20 2z"/>
<path d="M2548 5268 c10 -13 10 -17 0 -22 -7 -3 -4 -4 6 -3 31 3 29 -18 -4
-52 -25 -24 -28 -32 -17 -37 27 -10 53 12 55 48 2 26 -4 40 -25 59 -15 13 -22
17 -15 7z m26 -81 c-3 -8 -12 -18 -20 -21 -11 -4 -10 0 3 18 20 26 27 28 17 3z"/>
<path d="M2659 5274 c-1 -5 -1 -16 0 -25 1 -9 -11 -21 -27 -28 -42 -18 -39
-41 5 -28 18 6 33 14 33 19 0 5 6 6 13 2 9 -5 9 -4 0 6 -8 9 -9 17 -3 25 7 9
5 16 -5 25 -8 7 -16 9 -16 4z m11 -49 c0 -2 -10 -9 -22 -15 -22 -11 -22 -10
-4 4 21 17 26 19 26 11z"/>
<path d="M3340 5269 c0 -5 5 -7 10 -4 6 3 10 8 10 11 0 2 -4 4 -10 4 -5 0 -10
-5 -10 -11z"/>
<path d="M3755 5242 c-11 -15 -18 -31 -16 -37 2 -5 4 -16 5 -23 6 -33 89 -53
92 -21 1 8 2 18 3 24 0 5 6 4 13 -3 9 -9 7 -17 -11 -35 l-22 -24 27 -18 c27
-17 27 -18 8 -33 -16 -12 -16 -14 -1 -9 10 4 17 1 17 -5 0 -9 3 -9 11 -1 7 7
8 17 3 25 -5 7 -9 18 -9 23 -1 6 -6 9 -13 8 -23 -5 -12 31 16 53 15 12 24 26
20 30 -4 4 -14 2 -21 -4 -8 -7 -17 -9 -20 -5 -4 3 1 12 11 19 9 7 12 14 7 14
-6 0 -26 -16 -45 -35 -33 -33 -52 -44 -48 -27 1 4 -6 23 -15 42 -12 22 -13 28
-3 17 8 -10 17 -14 20 -9 3 6 -1 13 -10 16 -8 3 -12 10 -9 16 4 7 12 7 25 0
25 -13 30 -13 30 4 0 12 -21 27 -38 26 -4 0 -16 -13 -27 -28z m50 8 c3 -6 -1
-7 -9 -4 -18 7 -21 14 -7 14 6 0 13 -4 16 -10z"/>
<path d="M2520 5235 c13 -14 25 -25 27 -25 2 0 -4 11 -13 25 -9 14 -21 25 -27
25 -6 0 0 -11 13 -25z"/>
<path d="M2870 5249 c0 -5 5 -7 10 -4 6 3 10 8 10 11 0 2 -4 4 -10 4 -5 0 -10
-5 -10 -11z"/>
<path d="M2793 5217 c0 -12 1 -16 4 -8 5 11 7 11 14 0 5 -8 9 -9 9 -3 0 6 -6
16 -13 22 -10 8 -13 6 -14 -11z"/>
<path d="M2992 5220 c0 -14 2 -19 5 -12 2 6 2 18 0 25 -3 6 -5 1 -5 -13z"/>
<path d="M3150 5215 c0 -15 4 -24 10 -20 6 3 10 12 10 20 0 8 -4 17 -10 20 -6
4 -10 -5 -10 -20z"/>
<path d="M3660 5229 c0 -5 6 -9 13 -9 8 0 7 -4 -3 -10 -13 -8 -12 -10 5 -11
11 -1 25 -3 32 -3 6 -1 15 -5 20 -10 4 -5 3 -6 -3 -3 -6 3 -21 -8 -34 -26
l-23 -32 26 24 c15 14 27 19 27 13 0 -6 -4 -14 -10 -17 -5 -3 -15 -16 -21 -28
-9 -19 -8 -19 11 3 30 35 40 63 28 77 -14 18 -68 43 -68 32z"/>
<path d="M2430 5223 c0 -6 30 -63 33 -63 2 0 3 9 3 19 0 11 -5 17 -10 14 -5
-4 -7 3 -4 14 3 12 0 20 -8 20 -8 0 -14 -2 -14 -4z"/>
<path d="M3612 5209 c-12 -19 -11 -19 8 -9 11 6 18 15 15 21 -8 12 -8 12 -23
-12z"/>
<path d="M4417 5223 c-9 -2 -14 -9 -11 -15 5 -7 2 -8 -5 -4 -17 11 -84 -38
-113 -81 -13 -19 -44 -45 -70 -59 -27 -13 -48 -27 -48 -30 0 -2 10 0 21 7 15
8 23 8 28 0 9 -14 70 28 95 67 30 45 105 92 148 92 29 0 41 -6 55 -26 16 -24
16 -28 -1 -59 -15 -26 -42 -46 -131 -92 -62 -32 -111 -62 -108 -67 4 -5 1 -6
-4 -3 -6 4 -21 -2 -33 -13 -24 -21 -24 -20 23 -24 6 -1 11 4 10 11 -2 8 4 10
14 6 12 -5 14 -3 8 7 -5 8 -4 11 3 6 14 -8 74 28 64 39 -4 5 -2 5 5 2 16 -10
44 3 36 16 -3 6 -1 7 5 3 22 -14 88 37 75 58 -4 5 -1 6 6 2 7 -5 9 -13 4 -20
-4 -7 -1 -4 8 6 9 9 20 14 24 10 5 -4 5 -2 2 4 -3 6 3 18 14 27 48 42 -3 138
-73 136 -18 -1 -41 -3 -51 -6z"/>
<path d="M2703 5198 c0 -13 1 -17 4 -10 3 6 10 9 16 5 7 -4 6 1 -2 10 -17 21
-17 21 -18 -5z"/>
<path d="M3496 5193 c-6 -14 -5 -15 5 -6 7 7 10 15 7 18 -3 3 -9 -2 -12 -12z"/>
<path d="M2361 5174 c0 -11 3 -14 6 -6 3 7 2 16 -1 19 -3 4 -6 -2 -5 -13z"/>
<path d="M2489 5166 c7 -8 -4 -19 -31 -33 -27 -15 -38 -18 -35 -9 3 8 0 22 -7
31 -11 15 -13 15 -25 1 -8 -9 -9 -16 -3 -16 6 0 13 6 15 13 3 6 6 -1 6 -17 1
-23 -2 -27 -11 -18 -7 7 -17 12 -22 12 -6 0 -2 -7 9 -15 17 -14 18 -17 3 -31
-13 -14 -19 -14 -39 -3 -34 19 -47 19 -54 2 -9 -24 3 -29 19 -8 8 12 15 14 20
7 3 -6 2 -13 -4 -17 -7 -4 -7 -12 0 -25 7 -13 7 -21 -2 -26 -7 -4 -8 -3 -4 4
11 18 -10 14 -25 -5 -12 -15 -12 -16 1 -8 12 7 13 6 3 -6 -10 -13 -5 -22 30
-55 31 -29 34 -30 13 -6 -17 17 -26 32 -21 32 5 0 25 -15 45 -32 20 -18 16
-13 -8 11 -40 40 -42 45 -28 60 9 10 16 28 16 41 0 19 2 21 15 10 11 -9 12
-15 5 -20 -7 -4 -5 -12 6 -21 12 -9 15 -10 10 -1 -15 26 10 10 59 -35 l50 -48
-53 56 c-48 50 -51 57 -36 69 9 8 20 25 25 38 5 13 14 20 20 16 8 -5 8 -9 -1
-14 -8 -5 -5 -14 12 -32 13 -13 17 -17 11 -8 -21 27 -15 35 10 14 l22 -19 -19
23 c-19 22 -19 23 -1 36 24 17 31 63 10 63 -9 0 -11 -4 -6 -11z m6 -36 c-3 -5
-11 -10 -16 -10 -6 0 -7 5 -4 10 3 6 11 10 16 10 6 0 7 -4 4 -10z m-75 -44 c0
-2 -8 -10 -17 -17 -16 -13 -17 -12 -4 4 13 16 21 21 21 13z"/>
<path d="M2615 5169 c-4 -6 -4 -13 -1 -16 3 -4 6 -1 6 6 0 7 9 3 21 -10 l20
-24 -17 28 c-18 30 -20 31 -29 16z"/>
<path d="M3001 5164 c0 -11 3 -14 6 -6 3 7 2 16 -1 19 -3 4 -6 -2 -5 -13z"/>
<path d="M3242 5150 c0 -19 2 -27 5 -17 2 9 2 25 0 35 -3 9 -5 1 -5 -18z"/>
<path d="M3506 5163 c-6 -14 -5 -15 5 -6 7 7 10 15 7 18 -3 3 -9 -2 -12 -12z"/>
<path d="M2340 5161 c0 -6 4 -13 10 -16 6 -3 7 1 4 9 -7 18 -14 21 -14 7z"/>
<path d="M2720 5150 c6 -11 13 -20 16 -20 2 0 0 9 -6 20 -6 11 -13 20 -16 20
-2 0 0 -9 6 -20z"/>
<path d="M3476 5155 c-9 -26 -7 -32 5 -12 6 10 9 21 6 23 -2 3 -7 -2 -11 -11z"/>
<path d="M4415 5158 c-36 -20 -65 -51 -65 -70 0 -24 22 -18 102 26 45 25 55
35 46 44 -15 15 -56 15 -83 0z"/>
<path d="M3906 5138 c-14 -20 -14 -24 -1 -45 12 -17 12 -23 3 -23 -7 0 -2 -9
12 -20 25 -19 25 -19 5 -35 -16 -13 -16 -15 -3 -11 9 3 19 2 21 -2 2 -4 2 -1
1 6 -2 6 1 12 7 12 6 0 8 8 5 17 -4 10 -4 14 0 10 8 -8 34 11 34 25 0 5 -10 2
-22 -6 -12 -9 -25 -16 -29 -16 -14 0 -5 37 14 57 11 13 17 26 12 30 -4 5 -10
2 -12 -5 -3 -7 -12 -19 -20 -28 -13 -12 -18 -13 -24 -3 -10 17 -1 31 13 23 7
-5 9 -1 5 9 -4 11 1 17 16 20 l22 4 -22 2 c-12 0 -29 -9 -37 -21z"/>
<path d="M3072 5120 c0 -19 2 -27 5 -17 2 9 2 25 0 35 -3 9 -5 1 -5 -18z"/>
<path d="M3163 5105 c0 -27 2 -38 4 -22 2 15 2 37 0 50 -2 12 -4 0 -4 -28z"/>
<path d="M3301 5134 c0 -11 3 -14 6 -6 3 7 2 16 -1 19 -3 4 -6 -2 -5 -13z"/>
<path d="M2528 5131 c8 -4 13 -11 13 -15 -1 -3 1 -5 3 -3 2 1 14 -7 27 -18 16
-13 14 -8 -5 13 -17 17 -35 32 -40 32 -6 0 -5 -4 2 -9z"/>
<path d="M3011 5128 c0 -9 -4 -25 -7 -35 -5 -17 -5 -17 6 0 6 10 9 25 7 35 -4
15 -5 15 -6 0z"/>
<path d="M3225 5080 c3 -47 2 -58 -5 -40 -6 19 -8 11 -4 -30 3 -39 2 -49 -5
-35 -9 19 -10 19 -10 -2 -1 -13 4 -23 9 -23 6 0 10 -13 10 -30 0 -22 -4 -28
-15 -24 -11 5 -15 -1 -15 -19 0 -14 -7 -27 -15 -31 -12 -4 -15 6 -16 57 0 34
-4 82 -9 107 -7 36 -8 30 -4 -32 3 -51 1 -78 -6 -78 -5 0 -10 -11 -10 -25 0
-14 -4 -25 -9 -25 -11 0 -24 107 -23 185 1 49 0 56 -9 35 -6 -14 -7 -61 -3
-116 8 -106 -3 -140 -22 -73 -8 24 -14 57 -14 72 0 16 -4 26 -8 23 -5 -3 -6 9
-4 26 3 20 1 29 -6 24 -7 -4 -9 6 -6 31 4 32 3 34 -5 15 -7 -15 -6 -54 4 -124
8 -56 12 -104 9 -107 -10 -10 -22 18 -45 101 -13 48 -27 84 -33 81 -5 -3 -6
-1 -2 5 4 6 2 31 -4 54 -9 32 -14 38 -21 27 -5 -10 -1 -39 12 -80 25 -79 49
-201 43 -211 -3 -4 -11 -8 -17 -7 -8 0 -8 2 1 6 8 3 10 9 4 16 -6 7 -25 50
-44 96 -44 106 -58 90 -18 -19 21 -58 27 -86 20 -95 -5 -6 -7 -15 -3 -18 3 -4
-2 -7 -12 -7 -14 0 -16 3 -8 11 14 14 -25 102 -40 92 -6 -3 -7 -1 -4 5 9 14
-3 43 -14 36 -5 -3 -6 2 -3 10 3 8 -3 19 -15 25 -20 11 -20 10 -4 -26 8 -21
26 -59 39 -85 28 -56 29 -58 9 -58 -8 0 -22 15 -31 33 -25 48 -56 87 -65 81
-11 -6 -40 51 -31 61 4 5 1 5 -6 1 -10 -6 -7 -17 12 -49 14 -23 30 -41 36 -39
7 1 10 -3 7 -10 -2 -7 4 -32 14 -55 20 -47 10 -57 -27 -27 -10 8 -13 12 -5 8
7 -4 4 7 -9 24 -13 17 -28 28 -36 25 -15 -5 -12 -11 19 -54 10 -15 17 -35 15
-45 -2 -15 -11 -8 -43 30 -66 82 -106 122 -98 102 5 -15 3 -17 -8 -11 -8 5 -6
-1 5 -13 10 -12 23 -19 29 -15 5 3 7 0 5 -8 -3 -8 3 -25 12 -39 26 -38 51 -90
43 -90 -3 0 -45 39 -91 88 -47 48 -76 75 -64 61 31 -36 27 -47 -5 -18 -15 13
-6 -1 21 -31 64 -72 71 -78 61 -61 -5 10 -4 12 4 7 6 -4 9 -11 6 -16 -3 -5 2
-21 11 -35 9 -14 13 -25 9 -25 -9 0 -67 48 -125 103 -25 23 -35 31 -22 17 35
-41 26 -48 -13 -10 -19 18 -31 38 -28 44 3 6 3 8 -2 4 -12 -11 -35 11 -29 26
3 8 -2 16 -10 19 -40 15 -16 -18 80 -114 57 -57 104 -107 104 -111 0 -4 -11
-7 -24 -6 -14 1 -24 6 -23 10 4 15 -94 87 -110 81 -10 -4 -14 -2 -10 4 6 9
-111 113 -126 113 -2 0 -21 16 -42 35 -36 35 -37 36 -20 55 10 11 14 20 10 20
-5 0 -4 5 3 12 8 8 6 18 -9 40 -21 30 -42 30 -33 0 5 -14 4 -15 -5 -2 -5 8
-14 11 -18 6 -4 -5 -3 -11 3 -13 6 -2 20 -10 30 -17 18 -13 18 -15 2 -33 -13
-14 -14 -22 -6 -38 10 -17 9 -18 -4 -8 -8 7 -17 10 -20 8 -3 -3 -5 4 -4 16 0
12 -4 24 -11 26 -7 3 -9 -3 -6 -17 4 -16 2 -19 -11 -14 -11 4 -15 13 -11 25 8
25 -1 24 -15 -1 -9 -17 -7 -22 15 -32 19 -9 22 -14 14 -25 -14 -16 -41 -17
-58 0 -8 6 -11 7 -8 2 9 -17 -7 -35 -23 -25 -11 7 -11 12 -2 23 10 11 9 17 -3
27 -13 11 -19 11 -32 -2 -19 -19 -11 -33 28 -54 24 -12 34 -13 45 -4 7 7 21
10 29 6 9 -3 24 3 34 13 17 17 19 17 57 -10 21 -15 42 -25 47 -22 4 2 7 0 7
-6 0 -5 30 -33 68 -62 37 -29 84 -68 104 -88 33 -30 37 -32 33 -13 -2 13 0 20
5 17 4 -3 7 -13 5 -23 -1 -9 7 -27 18 -39 11 -13 15 -23 9 -23 -6 0 -14 5 -17
10 -4 6 -11 8 -16 5 -5 -4 -9 -2 -9 3 0 14 -91 65 -117 67 -17 0 -19 -2 -11
-13 6 -7 17 -11 24 -8 7 3 16 0 20 -6 4 -7 3 -8 -4 -4 -7 4 -12 5 -12 3 0 -2
25 -21 55 -41 58 -38 74 -63 27 -43 -48 21 -217 109 -227 118 -12 12 -45 12
-45 0 0 -5 50 -37 110 -71 61 -34 110 -64 110 -67 0 -14 -84 8 -155 41 -60 28
-81 33 -87 24 -5 -9 -8 -8 -8 6 0 10 -5 16 -12 13 -7 -2 -22 0 -33 5 -18 8
-18 8 3 4 12 -2 22 -3 22 -1 0 8 -69 37 -77 32 -4 -2 -17 0 -28 4 -17 8 -16 9
5 5 23 -5 24 -4 6 9 -11 8 -16 21 -13 30 6 13 3 13 -18 -1 -14 -9 -26 -14 -26
-10 -1 3 -2 10 -3 16 0 5 -10 16 -21 24 -19 15 -18 15 17 16 20 0 40 -5 43
-11 4 -6 14 -8 21 -5 8 3 32 -5 52 -18 59 -37 85 -49 78 -37 -4 6 -1 11 6 11
7 0 -5 12 -27 26 -58 39 -60 41 -45 59 17 20 21 57 6 52 -6 -2 -13 -17 -16
-33 -4 -19 -11 -29 -23 -28 -49 2 -58 5 -52 15 4 6 14 8 22 4 13 -5 14 -3 3
10 -15 18 -62 16 -66 -3 -1 -7 0 -8 3 -2 2 5 12 10 21 10 14 0 14 -2 2 -15
-17 -16 -130 -29 -130 -15 0 6 -13 10 -30 10 -24 0 -30 4 -30 23 0 26 -26 60
-57 76 -15 7 -127 11 -348 11 -359 0 -371 -2 -395 -60 -17 -41 -6 -98 25 -129
l25 -26 215 -3 c202 -3 215 -4 215 -22 0 -53 29 -50 -526 -50 -501 0 -515 -1
-534 -20 -26 -26 -26 -80 0 -108 21 -22 22 -22 430 -22 l410 0 0 -50 0 -50
-289 0 c-250 0 -292 -2 -305 -16 -9 -8 -16 -19 -16 -24 0 -5 -15 -10 -32 -12
l-33 -3 -3 -167 c-2 -141 0 -168 13 -182 9 -9 25 -16 34 -16 10 0 24 -7 31
-15 9 -11 33 -15 90 -15 l78 0 4 -91 c4 -117 16 -129 124 -129 40 0 76 -5 79
-10 4 -6 12 -7 18 -4 7 4 9 4 5 -1 -11 -11 12 -36 26 -28 6 3 8 3 4 -2 -4 -4
-1 -13 7 -19 13 -9 4 -29 -59 -133 -130 -211 -116 -122 -116 -745 0 -299 -3
-553 -6 -565 -5 -19 -14 -23 -48 -24 l-41 -2 34 -6 c54 -9 52 -39 -4 -59 l-30
-10 28 -1 c30 -1 32 -7 17 -45 -8 -23 -15 -26 -60 -26 -27 0 -50 -4 -50 -10 0
-5 20 -10 45 -10 50 0 49 1 34 -34 -13 -28 -35 -36 -105 -36 -89 0 -204 -13
-198 -21 3 -5 40 -9 82 -9 123 0 183 -10 180 -29 -4 -18 -52 -25 -273 -39
l-130 -8 130 -7 c198 -11 235 -16 235 -32 0 -25 -39 -36 -149 -42 -76 -4 -110
-2 -115 6 -12 19 -51 12 -74 -12 l-22 -23 23 -22 c25 -24 57 -28 74 -11 12 12
187 9 199 -4 4 -3 -1 -18 -10 -32 -15 -23 -23 -25 -86 -25 -38 0 -72 -5 -75
-10 -3 -6 -18 -7 -32 -4 -18 5 -24 3 -19 -5 5 -7 40 -11 97 -11 72 0 91 -3 96
-16 3 -8 2 -19 -3 -24 -5 -5 -90 -12 -189 -16 -205 -9 -192 -18 37 -29 136 -6
148 -9 148 -26 0 -24 -21 -28 -150 -32 -64 -1 -104 -6 -103 -12 2 -5 58 -13
125 -17 79 -5 124 -12 129 -20 14 -22 -13 -28 -126 -29 -77 -1 -103 -4 -85
-10 21 -7 19 -8 -13 -4 -20 2 -37 0 -37 -4 0 -4 57 -11 127 -14 118 -6 152
-15 138 -38 -3 -3 -73 -10 -157 -15 -151 -8 -152 -8 -78 -16 41 -4 110 -10
153 -14 53 -4 77 -10 77 -19 0 -18 -32 -24 -135 -26 -74 -2 -82 -3 -45 -9 l45
-7 -50 -3 c-33 -2 -11 -6 64 -11 62 -5 115 -10 117 -12 2 -2 8 -24 13 -49 10
-56 58 -141 73 -132 7 4 8 3 4 -4 -4 -6 7 -21 24 -33 21 -16 27 -25 18 -31
-10 -6 -9 -8 3 -8 9 0 46 -14 81 -30 92 -43 165 -49 598 -50 l384 0 -22 -23
c-22 -22 -24 -22 -460 -29 -240 -5 -482 -12 -537 -17 -93 -9 -88 -10 75 -7 96
2 155 0 130 -3 -47 -7 322 -21 536 -21 68 0 125 -4 128 -9 3 -5 -67 -12 -162
-15 -92 -4 -230 -10 -307 -13 l-140 -8 110 -6 c61 -4 174 -7 251 -8 145 -1
204 -7 204 -22 0 -4 -10 -11 -22 -15 -19 -6 -19 -7 -4 -16 9 -5 13 -14 9 -21
-3 -6 8 -1 25 12 18 12 32 27 32 32 0 5 4 8 9 6 5 -1 59 42 120 96 l111 97
1223 0 1223 0 41 -35 c22 -19 44 -31 48 -27 3 4 5 0 3 -8 -2 -8 3 -14 10 -12
8 1 11 -1 8 -6 -5 -8 159 -156 167 -150 3 2 15 -9 27 -25 12 -15 26 -24 32
-21 5 4 -10 27 -36 53 -25 26 -46 50 -46 54 0 4 87 8 193 8 105 1 221 4 257 8
64 6 63 6 -50 14 -63 4 -167 7 -230 7 -124 0 -220 9 -220 19 0 8 886 35 898
27 4 -2 32 -1 62 3 55 7 55 7 -40 14 -52 4 -293 12 -535 18 -407 10 -475 15
-475 38 0 5 161 11 358 13 l357 4 78 32 c52 21 95 32 127 32 27 0 52 5 55 10
4 6 -12 10 -40 10 l-46 0 18 24 c10 13 21 22 24 20 4 -2 13 4 20 13 12 14 12
16 -1 8 -8 -4 -2 4 13 18 15 15 25 32 22 37 -3 6 -2 10 4 10 6 0 13 11 17 25
3 14 11 25 17 25 8 0 8 3 0 11 -5 5 -8 21 -6 33 6 27 35 36 117 36 28 0 89 3
136 7 80 7 82 8 40 14 -25 4 -90 8 -145 8 -111 1 -145 7 -145 26 0 18 33 25
117 25 39 0 74 4 77 9 6 9 -73 21 -146 21 -41 0 -48 3 -48 19 0 25 17 28 230
38 171 7 173 8 85 14 -49 4 -134 7 -187 8 -104 1 -128 6 -128 26 0 16 45 22
245 32 138 7 144 8 80 14 -38 4 -110 7 -160 8 -124 2 -165 9 -165 31 0 19 68
29 215 31 44 1 105 4 135 9 48 6 40 8 -60 10 -63 1 -155 5 -205 9 -81 5 -90 8
-93 27 -3 20 3 21 104 27 59 4 141 8 183 8 48 1 8 6 -106 13 -167 10 -185 13
-205 33 -12 13 -20 25 -17 27 7 7 139 7 177 0 22 -4 38 -2 50 9 11 9 50 17
104 22 122 10 121 25 -1 25 -56 0 -101 4 -101 9 0 13 -60 25 -71 14 -14 -14
-201 4 -218 22 -8 8 -12 17 -9 21 4 3 52 8 107 11 56 3 101 9 101 14 0 8 -30
13 -165 26 -62 6 -80 12 -83 25 -3 13 10 17 81 23 62 5 84 11 84 21 0 11 -19
14 -81 14 -45 0 -91 3 -102 6 -20 5 -50 51 -41 61 3 2 49 8 103 12 l99 8 -111
2 -112 1 -10 28 c-12 32 -23 67 -31 102 -3 14 -7 282 -10 595 -5 461 -9 575
-20 595 -8 14 -45 81 -84 148 -65 116 -69 126 -61 160 l9 37 220 -1 c225 -2
256 -4 250 -15 -3 -3 13 -11 34 -18 43 -12 161 -15 161 -3 0 4 14 7 30 8 36 1
90 55 90 90 0 87 -169 132 -297 79 -39 -17 -116 -19 -326 -8 -134 6 -137 7
-137 29 0 12 4 34 10 48 l10 26 166 0 c157 0 166 1 171 20 5 19 11 20 89 13
63 -4 84 -3 84 6 0 7 5 9 10 6 6 -3 10 -1 10 4 0 6 6 10 13 9 6 -2 11 3 9 10
-1 8 2 11 9 7 6 -5 41 23 84 65 90 89 94 113 31 165 -24 19 -48 35 -54 35 -6
0 -27 -22 -46 -49 -47 -63 -103 -113 -124 -109 -23 4 -41 61 -41 133 -1 68
-12 85 -53 85 -18 0 -31 6 -35 18 -4 9 -11 20 -17 24 -6 4 -99 8 -207 8 -228
0 -209 -12 -209 127 0 73 -2 84 -22 97 -12 9 -33 16 -45 16 -22 0 -23 4 -23
66 0 40 -4 63 -10 59 -5 -3 -7 0 -4 8 3 9 -4 22 -18 31 -19 14 -64 16 -330 16
-309 0 -314 -1 -309 -32 0 -5 -5 -8 -13 -8 -14 0 -16 23 -4 35 12 12 -4 46
-19 41 -10 -4 -13 -1 -8 13 3 11 1 22 -5 26 -6 3 -7 11 -4 17 5 7 0 9 -14 6
-12 -4 -22 -2 -22 3 0 5 -7 9 -16 9 -22 0 -8 17 37 46 43 27 51 47 17 42 -13
-2 -23 -8 -23 -15 0 -6 -4 -15 -9 -20 -5 -5 -6 -3 -2 5 4 7 1 12 -9 12 -9 0
-14 -4 -11 -8 2 -4 -8 -7 -22 -6 -43 2 -48 5 -27 14 18 8 18 9 2 9 -11 1 -15
6 -11 12 5 8 1 8 -14 0 -22 -12 -39 0 -27 19 4 6 -5 10 -20 10 -18 0 -28 -7
-35 -26 -9 -23 -12 -24 -27 -13 -9 8 -18 13 -20 12 -1 -2 -6 -3 -9 -3 -3 0 4
8 16 18 20 16 21 20 7 25 -17 6 -30 -6 -34 -32 -2 -16 27 -42 39 -35 5 3 8 1
8 -5 0 -5 -7 -14 -16 -19 -12 -7 -14 -14 -7 -26 8 -15 11 -15 28 4 20 22 35
26 35 9 0 -5 -4 -7 -10 -4 -5 3 -10 2 -10 -4 0 -5 8 -15 18 -20 16 -10 16 -12
-1 -25 -17 -13 -17 -15 -1 -24 9 -5 24 -7 34 -5 10 3 20 -5 28 -21 l12 -26 20
20 c23 23 36 25 46 8 4 -6 3 -8 -4 -5 -16 11 -41 -3 -35 -19 6 -16 -18 -19
-33 -4 -8 8 -31 -3 -75 -34 -35 -25 -102 -67 -149 -92 -47 -26 -98 -56 -113
-67 -16 -10 -31 -16 -35 -12 -11 10 80 87 198 166 94 64 136 94 103 75 -6 -3
-15 -2 -18 4 -4 7 -27 -4 -58 -27 -29 -20 -95 -66 -147 -102 -52 -36 -97 -68
-100 -71 -8 -10 -37 -19 -43 -14 -3 3 12 21 34 41 21 19 36 40 32 47 -3 6 -3
8 2 4 8 -8 81 50 85 67 1 6 7 17 13 25 6 8 2 7 -10 -4 -13 -10 -20 -23 -17
-28 3 -5 0 -8 -8 -6 -20 4 -113 -63 -102 -75 3 -2 -2 -7 -11 -11 -11 -4 -14
-2 -9 6 4 6 -4 3 -18 -8 -21 -15 -24 -22 -15 -33 10 -12 9 -13 -3 -6 -17 9
-11 3 35 -35 16 -14 23 -17 16 -7 -7 9 -11 17 -8 17 3 0 15 -13 27 -29 l20
-30 -23 3 c-12 1 -28 5 -34 9 -6 4 -15 2 -19 -4 -5 -8 -3 -9 6 -4 8 5 11 4 7
-3 -6 -9 -47 -6 -47 4 0 2 12 10 28 18 15 8 21 15 14 16 -15 0 -64 -35 -57
-42 2 -2 -11 -4 -30 -5 -30 -1 -35 2 -35 23 0 13 5 23 11 22 6 -2 13 5 14 15
3 14 -2 13 -27 -8 -48 -40 -53 -17 -6 25 28 25 37 39 27 40 -17 0 -52 -33 -44
-42 3 -2 -6 -11 -20 -18 -32 -17 -46 -4 -17 16 12 8 22 20 22 26 0 6 8 17 18
24 9 7 12 14 6 14 -6 0 -21 -11 -34 -25 -13 -14 -20 -25 -15 -25 15 0 -29 -29
-44 -30 -10 0 -8 7 7 23 35 37 25 41 -11 5 l-34 -33 41 -21 40 -21 -331 -2
-331 -2 5 21 c3 12 9 18 12 12 3 -5 28 2 56 15 28 13 41 23 30 21 -20 -4 -63
38 -57 55 1 5 -2 6 -8 2 -7 -4 -4 -17 7 -36 14 -23 15 -31 4 -41 -10 -11 -12
-10 -9 1 2 7 -3 16 -11 19 -8 3 -11 0 -7 -7 10 -15 -7 -14 -23 2 -10 10 -11 8
-5 -8 6 -18 4 -17 -22 5 -25 22 -27 22 -10 2 19 -22 19 -23 0 -37 -10 -8 -21
-15 -24 -15 -3 0 -25 20 -48 43 -36 37 -41 46 -29 56 8 6 19 11 23 10 22 -4
35 2 28 13 -5 8 -2 9 10 5 11 -5 15 -3 10 5 -5 8 -2 9 10 5 9 -4 15 -3 12 2
-3 5 1 12 10 15 8 3 12 2 9 -4 -3 -6 1 -7 9 -4 9 3 13 11 9 17 -3 5 -1 7 5 4
15 -10 43 3 35 16 -3 5 -1 7 5 3 6 -3 49 5 95 18 61 18 115 26 195 28 60 2
108 0 106 -3 -7 -12 70 -19 81 -7 7 8 6 9 -4 3 -9 -5 -12 -4 -7 3 3 5 1 12 -5
14 -8 3 -6 18 5 51 20 61 20 61 -8 32 -13 -13 -26 -35 -30 -49 -9 -38 -26 -32
-19 8 3 18 1 36 -4 39 -6 4 -9 -4 -8 -18 2 -17 -1 -22 -11 -18 -8 3 -14 -1
-14 -11 0 -9 -5 -16 -10 -16 -6 0 -8 16 -5 38 11 91 14 190 5 222 -7 28 -8 23
-5 -30z m-960 -66 c11 -17 12 -25 4 -22 -6 2 -16 14 -20 26 -11 29 -5 28 16
-4z m1800 -25 c-4 -5 -13 -9 -22 -9 -13 0 -13 3 -3 15 13 15 35 11 25 -6z m49
-24 c18 -14 18 -15 -4 -33 -20 -16 -20 -19 -7 -31 17 -13 61 -6 52 9 -3 5 0
12 6 16 7 4 9 3 6 -3 -4 -6 -1 -16 7 -22 11 -9 15 -9 18 1 3 8 7 6 11 -6 4
-10 3 -15 -3 -11 -6 3 -10 2 -10 -4 0 -5 -10 -13 -22 -17 -38 -13 -47 -13 -45
-1 1 7 -9 13 -23 14 -14 0 -29 1 -34 2 -5 1 -3 8 4 16 9 10 9 19 2 28 -10 13
1 57 15 57 4 0 17 -7 27 -15z m-2037 -56 c2 -16 -1 -19 -9 -11 -5 5 -7 15 -4
21 10 15 12 14 13 -10z m2061 -4 c-3 -3 -13 -2 -22 1 -14 5 -15 9 -4 15 13 8
36 -6 26 -16z m-1860 -14 c30 -25 28 -35 -3 -15 -14 9 -25 20 -25 25 0 13 4
11 28 -10z m-1166 -33 c-16 -16 -15 -37 2 -70 8 -16 11 -28 6 -28 -14 0 -40
43 -40 67 0 22 28 58 38 48 3 -3 0 -11 -6 -17z m658 13 c21 -6 25 -13 23 -41
-1 -20 -9 -40 -19 -47 -24 -18 -560 -19 -599 -1 -33 15 -43 53 -20 78 17 19
32 20 304 19 157 -1 297 -4 311 -8z m880 -11 c0 -5 -2 -10 -4 -10 -3 0 -8 5
-11 10 -3 6 -1 10 4 10 6 0 11 -4 11 -10z m1380 -8 c0 -5 -10 -14 -22 -20 -13
-7 -33 -19 -45 -28 -13 -9 -23 -14 -23 -11 0 5 79 65 88 67 1 0 2 -4 2 -8z
m207 1 c-4 -3 -1 -13 5 -21 19 -22 18 -42 -2 -42 -10 0 -22 -4 -25 -10 -3 -5
-13 -10 -21 -10 -8 0 -13 4 -9 9 3 5 1 12 -5 16 -17 10 -12 21 16 33 14 7 22
17 19 22 -3 6 2 10 11 10 10 0 14 -3 11 -7z m-1852 -45 c30 -24 54 -47 54 -51
1 -5 -26 13 -59 39 -33 26 -60 49 -60 50 0 10 16 1 65 -38z m369 26 c3 -8 2
-12 -4 -9 -6 3 -10 10 -10 16 0 14 7 11 14 -7z m-70 -20 c5 -14 4 -15 -9 -4
-17 14 -19 20 -6 20 5 0 12 -7 15 -16z m-66 -25 c20 -32 10 -30 -16 2 -13 16
-17 27 -10 24 7 -3 19 -15 26 -26z m1486 7 c-3 -8 -12 -12 -20 -9 -8 3 -14 0
-14 -6 0 -6 -6 -11 -12 -11 -14 1 29 40 43 40 5 0 6 -6 3 -14z m66 -6 c8 -5
11 -10 6 -10 -5 0 -3 -7 4 -15 10 -12 16 -13 27 -4 7 7 16 9 20 5 3 -3 1 -6
-6 -6 -8 0 -10 -8 -6 -22 5 -18 4 -20 -4 -8 -6 8 -11 10 -11 4 0 -5 6 -19 14
-29 13 -18 9 -22 -62 -53 -110 -48 -215 -82 -254 -81 -30 0 -26 4 47 40 44 22
79 44 78 49 -2 5 4 7 12 4 20 -8 155 56 155 72 0 8 -9 14 -20 14 -22 0 -27
-15 -7 -23 7 -3 5 -6 -5 -6 -10 -1 -18 4 -18 9 0 6 -39 -9 -87 -33 -117 -58
-263 -120 -269 -114 -5 5 142 102 171 113 8 3 12 11 8 17 -3 6 -1 7 5 3 13 -8
49 13 50 29 0 5 6 11 13 14 8 2 9 -1 4 -10 -5 -7 16 1 46 18 60 35 67 37 89
23z m167 4 c-3 -3 -12 -4 -19 -1 -8 3 -5 6 6 6 11 1 17 -2 13 -5z m-2398 -15
c34 -12 41 -33 15 -43 -23 -9 -15 -14 49 -31 31 -8 102 -38 158 -66 81 -40
104 -48 111 -37 8 10 9 9 5 -4 -3 -9 -1 -19 6 -22 7 -2 -4 -5 -23 -6 -19 0
-81 14 -138 32 -82 27 -102 36 -98 50 2 11 -1 15 -10 11 -8 -3 -30 5 -50 16
-27 16 -40 19 -48 11 -15 -16 36 -57 89 -71 50 -14 115 -42 115 -50 0 -3 -26
-2 -57 3 -32 6 -66 10 -75 11 -10 1 -18 5 -18 10 0 4 -16 15 -35 23 -23 9 -33
19 -29 27 5 9 4 9 -6 0 -11 -10 -9 -16 11 -32 l24 -19 -30 -12 c-28 -11 -207
-13 -260 -2 -24 4 -20 8 41 34 83 35 104 54 141 124 30 59 48 65 112 43z
m1871 8 c0 -2 -10 -12 -22 -23 l-23 -19 19 23 c18 21 26 27 26 19z m-1615 -55
c-6 -7 -45 19 -45 29 0 5 11 2 24 -8 13 -10 23 -19 21 -21z m435 -37 c0 -18
-23 -7 -56 26 l-39 41 48 -32 c26 -17 47 -33 47 -35z m1667 40 c-31 -27 -52
-32 -63 -13 -10 16 25 38 60 38 l31 -1 -28 -24z m461 3 c-3 -20 -11 -24 -58
-29 -90 -10 -137 -41 -149 -102 l-7 -32 -124 -3 c-68 -1 -127 1 -132 6 -5 5
14 21 42 36 28 16 54 35 57 43 8 19 -33 52 -64 53 -29 0 -30 15 -1 17 12 1 26
9 30 18 8 13 39 15 209 15 l200 0 -3 -22z m163 -12 c5 -16 5 -42 2 -57 -5 -28
-8 -29 -64 -29 l-59 0 -1 38 c0 20 -2 47 -5 60 -4 22 -2 23 58 20 59 -3 62 -4
69 -32z m-2416 -5 c10 -17 -12 -21 -25 -6 -10 12 -10 15 3 15 9 0 18 -4 22 -9z
m1635 -5 c0 -11 -19 -15 -25 -6 -3 5 1 10 9 10 9 0 16 -2 16 -4z m-2473 -22
c4 -12 -39 -34 -66 -34 -22 0 -34 23 -20 37 13 13 81 11 86 -3z m62 -11 c-15
-17 -85 -52 -106 -53 -7 0 -13 5 -13 11 0 5 4 8 9 5 5 -4 11 -2 13 4 2 6 13
12 25 14 12 3 34 11 50 20 36 20 38 19 22 -1z m2629 -2 c9 -5 -2 -14 -36 -29
-51 -22 -86 -52 -61 -52 8 0 10 -3 3 -10 -9 -9 -224 -27 -224 -18 0 3 34 18
76 33 45 16 71 31 64 35 -9 6 -9 9 0 15 7 4 16 2 20 -5 6 -9 12 -9 29 -1 17
10 22 9 27 -4 3 -8 10 -12 15 -9 5 3 7 10 3 15 -17 28 50 52 84 30z m-2028
-17 c0 -2 -7 -4 -15 -4 -8 0 -15 4 -15 10 0 5 7 7 15 4 8 -4 15 -8 15 -10z
m1240 12 c0 -2 -8 -10 -17 -17 -16 -13 -17 -12 -4 4 13 16 21 21 21 13z m-846
-58 c26 -33 27 -47 4 -32 -18 12 -58 12 -58 1 0 -5 -7 -6 -15 -3 -47 19 -50
19 -30 2 20 -17 20 -17 -2 -7 -12 6 -29 8 -38 4 -15 -5 -16 -3 -6 15 6 12 15
21 19 21 20 -3 32 2 30 14 -2 6 5 11 14 9 9 -1 20 3 24 9 5 8 3 9 -6 4 -9 -5
-11 -4 -6 3 10 17 38 0 70 -40z m1991 19 c-41 -10 -53 -17 -65 -44 -16 -35
-30 -43 -30 -18 0 21 46 63 73 68 50 10 68 4 22 -6z m-3895 -17 c0 -6 -54 -11
-137 -12 l-138 -1 175 -7 c96 -4 218 -11 270 -15 l95 -9 -50 -12 -50 -12 45
-2 45 -2 -53 -8 c-30 -5 -139 -11 -244 -15 l-190 -8 4 37 c3 25 0 36 -9 36 -7
0 -13 -8 -13 -19 0 -31 -26 -46 -56 -32 -22 10 -25 16 -20 42 3 19 2 28 -4 24
-6 -3 -10 -4 -10 0 0 16 59 24 193 24 92 1 147 -3 147 -9z m1285 -28 c-3 -3
-11 0 -18 7 -9 10 -8 11 6 5 10 -3 15 -9 12 -12z m-639 -27 c5 -21 12 -25 40
-25 38 0 40 -4 23 -78 l-12 -50 -49 -6 c-27 -4 -54 -4 -60 0 -14 9 -4 150 12
170 19 22 39 17 46 -11z m3472 -72 l-3 -87 -60 3 c-33 1 -65 8 -72 14 -9 10
-19 116 -14 150 0 4 35 7 76 7 l76 0 -3 -87z m82 -8 c0 -47 -4 -85 -9 -85 -15
0 -21 29 -21 101 0 55 3 69 15 69 12 0 15 -16 15 -85z m-4268 18 c-40 -2 -103
-2 -140 0 -37 2 -4 3 73 3 77 0 107 -2 67 -3z m1038 -7 c0 -6 -7 -22 -16 -34
-14 -20 -23 -22 -110 -22 -86 0 -94 2 -94 19 0 49 6 52 116 50 71 -1 104 -5
104 -13z m2520 -28 c38 -63 56 -245 32 -333 l-11 -40 -338 3 c-242 1 -334 -1
-323 -9 11 -7 4 -8 -27 -4 -24 4 -43 3 -43 -2 0 -4 160 -6 355 -4 361 3 385 1
333 -33 -18 -11 -87 -15 -338 -19 -299 -4 -317 -5 -357 -26 -24 -12 -43 -26
-43 -31 0 -6 -3 -9 -7 -8 -5 1 -35 -12 -68 -29 -85 -43 -188 -79 -270 -92 -68
-12 -150 -3 -230 24 -16 6 -17 5 -5 -4 9 -7 11 -11 3 -11 -7 0 -16 6 -20 13
-4 7 -43 29 -85 50 -43 21 -99 54 -125 74 l-47 36 -408 2 c-349 3 -410 5 -423
18 -8 9 -15 20 -15 26 0 8 126 11 414 11 266 0 417 4 421 10 4 7 -140 10 -424
10 -333 0 -432 3 -438 13 -4 6 -9 55 -11 107 -4 97 12 191 44 252 l15 28 1209
0 1210 0 20 -32z m430 -12 l0 -44 -62 -4 c-52 -2 -62 0 -66 15 -4 15 -18 17
-108 17 -92 0 -104 2 -114 19 -21 40 -16 41 170 41 l180 0 0 -44z m-3001 -149
c-5 -17 -9 -69 -9 -114 l0 -83 -34 0 c-32 0 -34 2 -40 46 -3 26 -6 77 -6 115
l0 68 43 3 c56 4 57 3 46 -35z m-499 24 c-31 -17 -199 -42 -327 -48 l-133 -6
0 31 0 32 238 0 c134 0 230 -4 222 -9z m165 -7 c21 -14 25 -25 27 -68 1 -44 2
-46 5 -13 3 24 9 37 16 34 14 -4 21 -79 11 -116 l-7 -26 -7 25 c-8 25 -8 25
-9 2 -2 -37 -21 -14 -22 26 -1 20 -3 29 -6 19 -2 -9 -9 -15 -14 -12 -5 4 -9
-34 -9 -91 0 -57 -4 -94 -9 -89 -9 11 -22 311 -13 319 8 8 10 8 37 -10z m211
-100 c-6 -120 -19 -172 -30 -124 -3 14 -7 73 -8 133 l-4 107 25 0 24 0 -7
-116z m2899 4 c-4 -62 -8 -114 -9 -114 0 -1 -18 -4 -38 -8 l-38 -7 0 98 c0 54
-3 108 -6 121 -6 21 -3 22 46 22 l52 0 -7 -112z m67 75 l3 -38 58 -1 c31 -1
60 3 63 7 12 19 33 9 28 -13 -3 -13 -6 -43 -8 -68 -5 -65 -26 -64 -28 2 l-1
53 -7 -50 c-6 -45 -7 -47 -10 -15 l-3 35 -7 -35 c-6 -30 -8 -31 -10 -10 -2 24
-3 23 -10 -5 l-7 -30 -7 40 c-11 58 -14 64 -16 30 -1 -16 -5 -39 -10 -50 -6
-15 -9 -4 -11 40 -2 45 -3 51 -6 22 -2 -20 -8 -35 -14 -32 -5 4 -9 -10 -9 -29
0 -20 -4 -36 -10 -36 -6 0 -10 43 -10 110 0 89 3 110 14 110 10 0 16 -13 18
-37z m193 -21 c-2 -199 -6 -273 -15 -267 -16 10 -13 328 3 323 7 -3 12 -24 12
-56z m647 33 c3 -13 3 -27 0 -30 -8 -7 -457 -6 -531 1 -56 6 -61 9 -61 30 l0
24 294 0 294 0 4 -25z m116 -27 c7 -7 12 -37 12 -67 0 -35 -4 -51 -9 -43 -12
19 -22 -23 -14 -61 4 -20 3 -28 -5 -23 -5 3 -12 3 -15 -1 -2 -5 -3 -3 -1 3 1
6 -2 47 -8 92 -6 45 -8 88 -5 97 8 18 28 20 45 3z m-4832 -65 c-16 -145 -17
-173 -6 -173 5 0 10 -7 10 -15 0 -23 -19 -18 -24 8 -3 12 -8 73 -11 135 -7
111 -7 112 16 112 21 0 22 -2 15 -67z m622 -8 c2 -32 1 -69 -3 -82 l-5 -23
-264 0 -264 0 0 -35 0 -35 270 0 c226 0 269 -2 259 -14 -9 -10 -67 -14 -276
-15 l-265 -2 0 105 c0 57 -3 111 -6 119 -4 12 25 15 188 21 106 4 222 10 258
15 107 14 105 15 108 -54z m222 -21 c0 -74 -19 -88 -22 -16 l-1 47 -7 -45 -7
-45 -3 40 -3 40 -6 -40 c-6 -36 -7 -38 -14 -15 -8 29 -9 94 -2 102 3 2 18 3
35 0 30 -4 30 -5 30 -68z m3455 55 c66 -6 190 -9 275 -7 150 3 155 2 153 -17
-2 -11 -3 -50 -4 -87 0 -38 -5 -68 -10 -68 -5 0 -9 9 -9 20 0 20 -7 20 -295
20 l-295 0 0 81 0 82 32 -7 c18 -3 86 -11 153 -17z m828 -57 c23 -26 5 -40
-28 -22 -26 14 -39 36 -29 51 7 11 33 -2 57 -29z m-53 -78 c0 -35 -132 -111
-174 -100 -22 5 -26 12 -26 41 0 33 2 35 34 35 25 0 45 10 77 39 l44 39 23
-21 c12 -11 22 -26 22 -33z m-223 -36 c-2 -13 -4 -5 -4 17 -1 22 1 32 4 23 2
-10 2 -28 0 -40z m-4910 -25 c-3 -10 -5 -2 -5 17 0 19 2 27 5 18 2 -10 2 -26
0 -35z m5153 23 c0 -2 -8 -10 -17 -17 -16 -13 -17 -12 -4 4 13 16 21 21 21 13z
m-1230 -32 c0 -20 -7 -17 -20 6 -9 16 -8 18 5 14 8 -4 15 -12 15 -20z m953 19
c-10 -3 -10 -7 0 -18 7 -7 16 -10 21 -7 5 3 6 0 3 -6 -9 -13 -47 -3 -47 12 0
16 10 26 24 25 6 0 6 -3 -1 -6z m-3903 -18 c0 -8 -9 -15 -20 -15 -20 0 -26 11
-13 23 12 13 33 7 33 -8z m2889 -1 c2 -2 -14 -4 -37 -4 -23 0 -42 4 -42 9 0 9
69 4 79 -5z m-2779 2 c0 -8 -61 -12 -66 -4 -3 4 11 8 30 8 20 0 36 -2 36 -4z
m3688 -21 c-5 -16 -590 -13 -596 3 -3 10 58 12 297 10 194 -2 300 -7 299 -13z
m-3905 -113 c9 -76 34 -119 73 -127 18 -3 35 -9 38 -14 3 -4 2 -33 -1 -64 l-6
-57 -45 0 c-51 0 -50 13 1 14 26 1 33 6 35 25 5 34 -16 51 -33 27 -14 -19 -15
-19 -39 7 -14 15 -27 27 -28 27 -2 0 -3 -22 -3 -50 l0 -50 -47 0 c-50 0 -56 7
-37 41 8 16 7 23 -6 33 -15 11 -17 25 -10 124 l7 112 48 0 47 0 6 -48z m3245
-76 c2 -78 -1 -123 -9 -132 -16 -19 -49 -18 -65 4 -12 16 -13 15 -22 -8 -8
-19 -7 -28 6 -37 13 -11 10 -13 -21 -13 -20 0 -37 4 -37 10 0 5 7 7 15 4 11
-5 13 -2 9 10 -3 9 -1 16 5 16 6 0 11 10 11 23 0 25 -17 47 -36 47 -13 0 -37
-50 -32 -70 2 -8 -4 -15 -13 -17 -13 -3 -18 7 -23 47 -4 29 -11 48 -17 45 -5
-4 -8 -14 -7 -23 3 -15 -15 -17 -187 -17 l-190 0 0 25 0 25 227 3 228 2 16 32
c9 17 19 58 22 90 l5 59 56 -3 56 -3 3 -119z m-1908 50 c128 -59 242 -96 300
-96 69 0 182 39 355 121 41 19 64 23 125 22 41 -1 263 -5 493 -8 253 -4 415
-10 412 -16 -4 -5 -154 -10 -358 -11 l-352 -2 335 -6 c184 -3 341 -9 348 -13
27 -18 11 -34 -40 -41 -113 -13 -599 -6 -703 10 -158 25 -177 23 -301 -34
-260 -120 -372 -117 -665 19 l-106 49 -69 -10 c-38 -5 -105 -17 -149 -25 -61
-11 -168 -14 -440 -15 -198 0 -370 3 -382 6 -25 7 -31 24 -8 24 7 0 18 7 22
15 7 13 63 15 373 18 l365 2 -393 3 c-259 1 -391 5 -387 12 4 6 153 10 413 11
290 0 431 4 492 14 137 22 182 15 320 -49z m-1548 -120 c-3 -137 -4 -146 -23
-146 -18 0 -19 8 -19 123 0 67 -3 132 -6 144 -5 17 -1 22 18 25 12 2 25 3 28
2 3 -1 4 -68 2 -148z m3766 132 c5 -21 6 -21 12 -2 6 14 9 9 14 -23 5 -27 13
-43 22 -43 8 0 14 -4 14 -9 0 -4 103 -11 229 -15 198 -7 233 -5 267 9 121 50
269 15 250 -60 -15 -59 -176 -76 -271 -30 -49 24 -56 25 -282 25 l-233 0 0 23
c0 18 -2 19 -10 7 -5 -8 -10 -45 -10 -82 0 -61 -2 -68 -20 -68 -19 0 -20 5
-14 58 4 40 3 53 -5 42 -7 -11 -11 5 -14 60 l-3 75 -3 -80 c-2 -61 -4 -75 -12
-57 -11 30 0 175 15 184 22 15 48 8 54 -14z m-3843 -53 c0 -58 -1 -60 -27 -63
-27 -3 -28 -2 -28 50 0 56 13 81 40 76 11 -3 15 -18 15 -63z m3731 -31 c-3
-26 -6 -78 -6 -115 l0 -69 -50 0 c-29 0 -50 5 -50 11 0 6 17 9 42 8 26 -2 43
1 46 9 2 8 -9 12 -36 12 -47 0 -52 10 -52 118 l0 72 56 0 57 0 -7 -46z m-3909
1 c-1 -29 -5 -35 -23 -35 -12 0 -35 -3 -53 -6 -35 -7 -47 9 -37 51 6 23 11 25
60 25 l54 0 -1 -35z m1993 20 c19 -7 28 -14 20 -14 -8 0 -28 6 -45 14 -39 17
-21 18 25 0z m-1892 -33 c3 -17 -2 -22 -17 -22 -14 0 -21 6 -21 18 0 38 33 41
38 4z m4065 21 c-7 -2 -21 -2 -30 0 -10 3 -4 5 12 5 17 0 24 -2 18 -5z m-2598
-53 c-186 -87 -340 -149 -349 -140 -6 6 -1 13 15 19 13 5 76 30 139 56 134 56
211 84 225 84 6 0 -8 -8 -30 -19z m75 12 c0 -5 -16 -16 -36 -26 -20 -9 -34
-20 -30 -23 8 -8 -13 -33 -28 -33 -6 0 -2 7 8 15 29 22 13 18 -31 -6 -59 -33
-73 -45 -65 -54 4 -5 2 -5 -4 -2 -15 9 -116 -47 -107 -58 5 -4 2 -5 -4 -1 -7
4 -26 -1 -43 -11 -23 -13 -33 -14 -41 -6 -9 9 -4 17 22 32 19 11 37 21 41 22
3 1 75 37 160 80 172 88 158 82 158 71z m1103 -34 c37 -16 73 -26 79 -22 6 4
8 3 5 -3 -4 -6 29 -27 76 -48 45 -21 77 -39 70 -42 -6 -2 -30 5 -53 17 -32 16
-45 19 -54 10 -8 -8 -6 -9 8 -4 13 5 17 4 12 -4 -5 -8 -1 -10 10 -5 12 4 15 3
10 -5 -4 -7 -1 -12 6 -12 8 0 23 -7 34 -16 18 -15 17 -15 -11 -8 -16 4 -40 7
-52 7 -13 -1 -21 3 -18 7 9 15 -15 22 -31 9 -12 -10 -13 -9 -9 3 8 21 -79 68
-96 51 -8 -8 -3 -15 20 -28 17 -9 37 -13 43 -9 6 4 8 3 5 -3 -6 -10 9 -21 38
-29 27 -6 84 -35 90 -44 10 -16 -12 -12 -58 11 l-42 20 35 -31 c32 -28 34 -31
18 -43 -10 -8 -28 -13 -40 -11 -13 1 -27 3 -32 3 -6 1 -2 7 8 14 16 12 15 14
-10 37 -15 14 -24 19 -19 11 5 -9 3 -12 -6 -9 -8 3 -13 12 -11 19 3 11 1 12
-9 2 -17 -17 -34 -16 -20 1 9 10 3 19 -29 40 -23 15 -46 24 -52 20 -6 -4 -8
-3 -5 3 6 9 -37 52 -98 97 -43 33 7 14 79 -30 51 -31 81 -43 87 -37 11 11 -66
57 -80 49 -4 -3 -8 1 -8 9 0 19 0 19 49 -6 32 -16 43 -18 52 -8 8 9 7 10 -7 6
-10 -4 -16 -3 -13 2 7 10 -71 34 -84 26 -6 -3 -19 0 -31 8 -36 26 67 8 144
-25z m1044 10 c-3 -7 -5 -2 -5 12 0 14 2 19 5 13 2 -7 2 -19 0 -25z m-2692 -8
l0 -25 -247 -3 -248 -2 0 30 0 30 248 -2 247 -3 0 -25z m-988 -6 c3 -8 3 -17
0 -20 -7 -7 -47 14 -47 24 0 15 41 11 47 -4z m1574 -3 c-11 -20 -104 -102
-159 -140 -21 -15 -30 -26 -23 -31 15 -9 -32 -60 -54 -60 -9 0 -13 -4 -10 -10
3 -5 2 -10 -4 -10 -25 0 -18 21 13 42 20 13 36 27 36 31 0 5 -27 -12 -59 -38
-41 -31 -62 -41 -67 -33 -7 11 17 37 67 72 13 8 20 18 17 21 -2 3 -23 -8 -45
-24 -48 -35 -87 -49 -81 -30 3 8 46 39 97 71 103 63 117 74 83 65 -12 -3 -20
-1 -16 4 3 5 11 9 19 9 7 0 15 3 18 8 2 4 2 1 1 -5 -2 -7 -2 -13 0 -13 5 0 88
49 116 68 19 13 22 14 16 2 -6 -10 -3 -10 10 3 24 22 37 22 25 -2z m860 -12
c22 -17 45 -32 52 -33 21 -3 59 -27 53 -33 -3 -4 -15 2 -26 12 -11 10 -20 16
-20 13 0 -5 136 -124 204 -179 17 -14 18 -19 7 -33 -12 -14 -17 -13 -54 17
-59 45 -246 227 -258 249 -14 26 -2 22 42 -13z m-818 -10 c-10 -17 -47 -59
-82 -92 -149 -144 -170 -167 -165 -182 4 -8 1 -15 -5 -15 -6 0 -11 6 -11 13 0
9 -2 9 -8 -1 -8 -12 -42 -7 -42 6 0 3 39 44 88 90 48 46 76 76 62 66 -14 -11
-28 -23 -32 -29 -4 -5 -10 -7 -13 -3 -6 5 53 53 65 53 14 0 58 43 52 50 -4 5
-2 5 4 2 6 -3 28 12 49 33 47 48 63 52 38 9z m-550 -107 c42 -64 167 -181 252
-237 221 -147 419 -201 709 -192 131 3 179 9 256 30 110 30 132 29 33 -1 -227
-69 -499 -66 -723 7 -124 41 -265 120 -365 203 -154 128 -227 232 -209 296 7
24 8 22 15 -21 4 -27 19 -65 32 -85z m1319 103 c7 7 64 -52 61 -63 -3 -10 39
-52 47 -47 4 2 27 -17 51 -43 l44 -47 -50 45 c-34 31 -28 22 20 -28 68 -70 85
-83 85 -61 0 5 -4 8 -9 5 -4 -3 -16 3 -26 14 -23 26 -1 27 26 1 16 -14 18 -23
10 -43 -15 -41 -35 -40 -76 2 -21 22 -42 37 -47 34 -5 -3 -7 0 -6 8 2 8 -5 12
-17 10 -16 -2 -17 -1 -6 7 11 7 2 23 -49 78 -56 61 -110 134 -110 148 0 3 10
-1 23 -10 13 -8 26 -13 29 -10z m569 -22 c-14 -51 -60 -122 -112 -173 -94 -91
-277 -221 -310 -220 -8 1 4 10 26 22 74 39 211 147 282 221 64 68 85 102 109
186 10 33 14 -1 5 -36z m-1281 17 c-6 -11 -8 -20 -6 -20 3 0 -5 -11 -17 -24
-39 -42 -132 -161 -114 -147 9 7 17 9 17 4 0 -14 -21 -32 -34 -28 -6 2 -21 -9
-34 -26 -16 -20 -19 -27 -8 -23 9 3 16 11 16 17 0 6 3 7 7 4 3 -4 -4 -18 -17
-32 -18 -19 -26 -22 -33 -13 -6 9 -7 8 -3 -4 3 -10 1 -20 -4 -23 -6 -4 -10 -1
-10 6 0 7 -6 5 -14 -6 -12 -17 -15 -17 -36 -2 l-22 16 93 96 c52 53 95 102 97
108 2 7 -1 5 -7 -3 -6 -8 -11 -10 -11 -4 0 6 8 18 17 25 11 10 14 10 9 2 -4
-7 -3 -13 2 -13 15 0 34 28 28 39 -4 5 -1 13 5 17 8 4 9 3 5 -4 -4 -7 -2 -12
3 -12 11 0 15 15 11 35 -1 6 2 7 6 3 3 -4 18 2 32 12 31 25 35 25 22 0z m-611
-35 c0 -5 -4 -3 -9 5 -5 8 -9 22 -9 30 0 16 17 -16 18 -35z m-146 28 c56 -5
67 -9 67 -24 0 -17 -8 -19 -72 -17 -67 1 -69 2 -28 8 26 4 -48 8 -172 8 -186
2 -218 4 -218 17 0 13 26 15 178 15 97 0 207 -3 245 -7z m789 -44 c-12 -23
-19 -46 -16 -51 3 -4 -2 -8 -11 -8 -9 0 -13 -4 -10 -10 3 -5 2 -10 -2 -10 -5
0 -32 -36 -61 -79 -35 -53 -50 -85 -46 -97 4 -14 3 -15 -4 -6 -7 11 -14 6 -32
-20 -13 -18 -25 -35 -26 -36 -5 -7 -44 10 -44 18 0 5 27 45 60 89 60 80 71 99
48 85 -17 -11 27 50 49 67 17 13 17 13 4 -6 -8 -11 0 -5 17 14 18 18 29 38 25
44 -3 5 -2 7 4 4 5 -3 20 7 32 24 31 42 38 29 13 -22z m623 21 c15 -16 32 -27
36 -24 9 5 19 -9 24 -38 3 -12 15 -31 27 -43 21 -19 21 -19 7 0 -13 18 -13 19
3 6 10 -7 16 -17 13 -21 -3 -4 24 -43 60 -86 36 -43 65 -82 65 -86 0 -4 -10
-12 -21 -19 -17 -9 -24 -8 -30 2 -4 8 -36 50 -72 94 -35 44 -69 90 -76 103 -7
12 -17 20 -23 16 -6 -4 -8 -3 -4 4 3 6 -7 32 -24 58 -45 71 -37 88 15 34z
m1035 21 c0 -5 3 -17 6 -26 6 -14 -10 -16 -157 -15 -95 1 -179 6 -199 13 -44
14 -43 14 -35 26 8 14 385 15 385 2z m-1614 -73 c-13 -35 -44 -105 -70 -156
-26 -51 -44 -98 -40 -104 4 -6 3 -8 -3 -5 -6 4 -19 -9 -29 -28 -14 -27 -23
-34 -39 -29 -35 11 -34 17 10 89 26 42 40 74 35 80 -6 7 1 23 17 40 l25 30
-17 -28 c-9 -16 -14 -31 -12 -33 3 -3 17 20 32 51 15 30 31 58 36 61 4 2 5 12
2 21 -4 11 -3 14 5 9 7 -4 13 -2 13 3 1 6 2 16 3 21 0 6 5 10 9 10 4 -1 15 6
23 15 25 25 25 18 0 -47z m548 -9 c24 -32 45 -56 48 -53 4 3 5 -3 5 -13 -1 -9
3 -18 10 -18 6 0 15 -4 20 -9 5 -5 2 -6 -6 -1 -9 5 -12 3 -9 -6 3 -8 11 -13
17 -11 7 1 10 -2 6 -8 -8 -13 14 -42 26 -34 5 3 6 -3 2 -12 -4 -11 -2 -15 4
-11 6 4 10 0 9 -9 0 -10 8 -18 23 -21 14 -2 27 -6 30 -10 3 -3 -4 -3 -16 0
-28 6 -28 3 -3 -33 l19 -27 -26 -12 c-14 -7 -29 -8 -33 -4 -4 4 -46 76 -93
158 -113 200 -130 268 -33 134z m-1551 44 c-13 -2 -35 -2 -50 0 -16 2 -5 4 22
4 28 0 40 -2 28 -4z m1052 -83 c-14 -40 -23 -76 -20 -78 3 -3 5 1 5 9 0 11 2
11 8 1 6 -8 18 11 37 58 16 39 32 73 37 76 17 11 5 -57 -41 -221 l-47 -170
-29 3 c-39 5 -39 5 -21 40 9 17 13 39 9 48 -4 11 -2 15 4 11 6 -4 15 11 22 34
7 23 15 48 18 57 4 9 2 13 -4 9 -7 -5 -9 0 -6 13 3 11 3 20 0 20 -3 0 -22 -44
-43 -97 -20 -54 -41 -103 -46 -109 -9 -13 -48 -7 -48 6 0 4 17 46 39 92 49
107 58 133 41 123 -9 -5 -11 -4 -6 4 4 6 11 9 15 6 12 -7 41 73 35 93 -5 14
-4 15 5 2 8 -12 11 -11 17 5 9 26 38 59 41 48 2 -5 -8 -42 -22 -83z m443 9
c21 -38 42 -66 47 -62 4 5 5 3 1 -4 -6 -11 38 -113 49 -113 3 0 -2 15 -11 33
-15 30 -15 31 1 16 9 -10 18 -30 19 -45 1 -16 10 -46 20 -67 16 -33 17 -40 5
-48 -26 -16 -40 -9 -54 25 -8 19 -35 77 -59 130 -94 200 -106 295 -18 135z
m765 74 c-7 -2 -19 -2 -25 0 -7 3 -2 5 12 5 14 0 19 -2 13 -5z m597 -12 c0 -4
-16 -5 -35 -3 -19 2 -35 7 -35 11 0 4 16 5 35 3 19 -2 35 -7 35 -11z m-1433
-58 c17 -38 34 -78 37 -90 4 -13 11 -23 16 -23 5 0 7 -6 4 -14 -3 -7 1 -20 8
-27 7 -8 13 -20 14 -26 2 -30 5 -34 16 -27 7 5 8 3 3 -5 -4 -7 1 -33 10 -57
19 -51 20 -49 -17 -58 -26 -6 -27 -4 -57 92 -47 153 -81 273 -81 288 0 32 19
10 47 -53z m-237 30 c0 -16 -12 -97 -26 -181 -21 -128 -23 -156 -12 -169 11
-15 11 -16 -4 -10 -12 4 -18 2 -18 -8 0 -9 -10 -15 -26 -15 -25 0 -26 1 -20
45 5 29 4 45 -3 45 -6 0 -11 9 -11 20 0 25 17 26 23 3 4 -15 5 -14 6 2 0 12
-5 27 -11 34 -11 12 -10 13 6 7 16 -5 18 -2 14 23 -2 17 -1 28 2 26 4 -2 12
21 19 53 27 126 61 196 61 125z m46 -380 c-3 -7 -19 -13 -37 -13 l-31 0 7 63
c16 142 45 339 52 350 9 13 17 -379 9 -400z m83 228 c12 -85 21 -174 21 -198
0 -41 -2 -43 -28 -43 l-29 0 -6 113 c-9 147 -9 292 0 301 13 13 22 -21 42
-173z m49 99 c12 -36 32 -107 45 -159 14 -51 26 -89 28 -82 2 6 4 -9 5 -34 1
-26 -4 -45 -10 -45 -6 0 -21 -3 -32 -6 -20 -5 -23 -1 -29 48 -3 29 -15 105
-26 169 -32 192 -23 241 19 109z m472 60 c0 -5 -2 -10 -4 -10 -3 0 -8 5 -11
10 -3 6 -1 10 4 10 6 0 11 -4 11 -10z m42 -32 c-12 -12 -35 -1 -27 12 3 5 13
6 21 3 10 -4 12 -9 6 -15z m-1158 -61 c-32 -35 -68 -69 -79 -76 -11 -7 14 21
55 63 90 92 106 101 24 13z m349 28 c-3 -9 -8 -14 -10 -11 -3 3 -2 9 2 15 9
16 15 13 8 -4z m880 -20 c4 3 3 0 -2 -6 -11 -14 -27 -5 -42 24 l-12 22 25 -23
c13 -12 28 -20 31 -17z m-1908 -15 l29 -30 -265 0 c-174 0 -259 -4 -249 -10 9
-6 115 -10 248 -10 185 0 240 -3 269 -15 20 -9 84 -61 142 -118 117 -113 170
-160 156 -137 -6 9 3 2 18 -15 16 -16 26 -23 22 -15 -4 8 4 2 17 -14 15 -18
29 -26 37 -22 6 4 10 4 9 -1 -2 -4 0 -9 5 -10 4 -2 15 -11 26 -22 10 -10 61
-41 112 -69 68 -37 102 -50 119 -46 20 5 22 3 10 -5 -8 -6 -12 -11 -8 -11 3 0
14 -3 23 -6 10 -4 15 -2 13 7 -2 8 -38 30 -81 51 -82 39 -213 122 -287 181
-24 20 -48 33 -52 31 -5 -3 -7 -2 -6 3 1 4 -44 55 -101 113 -56 58 -118 126
-137 153 l-34 47 51 0 c75 0 110 -22 175 -108 32 -43 78 -99 103 -125 51 -55
130 -120 117 -97 -4 8 4 2 19 -15 14 -16 24 -25 21 -18 -4 6 -1 15 5 19 8 4 9
3 5 -4 -8 -14 42 -64 55 -56 5 3 9 1 9 -5 0 -6 18 -20 40 -31 32 -16 38 -17
34 -5 -6 14 -3 14 21 3 22 -10 24 -13 10 -18 -26 -9 45 -39 81 -34 23 3 25 3
9 -4 -19 -9 -19 -9 2 -16 13 -4 28 -4 34 0 8 4 9 3 5 -4 -7 -12 51 -32 169
-57 82 -17 300 -20 395 -4 267 43 573 233 726 450 71 101 115 129 205 129 l64
0 -140 -141 c-77 -78 -174 -168 -215 -202 -41 -33 -74 -65 -72 -71 2 -6 0 -8
-3 -4 -11 11 -47 -11 -39 -24 4 -6 3 -8 -4 -4 -14 9 -84 -33 -75 -47 3 -5 1
-7 -5 -3 -14 9 -63 -14 -55 -27 3 -6 2 -7 -4 -4 -5 3 -51 -11 -101 -33 -267
-115 -523 -126 -852 -37 -8 2 -12 2 -7 0 4 -3 7 -11 7 -20 0 -11 7 -13 33 -8
25 5 29 4 17 -5 -12 -9 -9 -10 13 -5 20 4 27 2 22 -6 -5 -8 -1 -9 14 -4 11 3
21 2 21 -3 0 -30 353 -42 490 -18 145 26 431 142 494 201 12 11 25 20 28 20
15 0 137 99 132 107 -3 5 -2 7 3 6 10 -4 83 52 80 60 -1 4 1 7 5 7 13 0 77 68
72 77 -3 4 1 8 9 8 8 0 21 8 28 17 12 14 12 16 0 8 -10 -5 -12 -4 -7 3 4 7 12
12 19 12 6 0 24 12 40 28 l28 27 347 5 c263 4 324 7 253 13 -52 4 -200 7 -330
7 -188 0 -233 3 -223 13 7 7 51 15 100 18 l87 6 -83 1 c-53 1 -81 6 -77 12 4
6 126 10 334 10 l328 0 46 -69 c25 -37 59 -95 75 -127 l29 -59 6 -320 c4 -204
3 -315 -3 -305 -5 8 -10 54 -10 103 0 51 -4 87 -10 87 -5 0 -10 -25 -10 -55 0
-40 -4 -57 -15 -61 -20 -8 -19 -30 6 -100 18 -50 23 -92 29 -269 6 -177 11
-220 29 -274 26 -75 91 -207 171 -346 77 -134 90 -167 90 -234 0 -146 -138
-274 -307 -289 -59 -4 -63 -4 -63 17 0 12 18 41 40 64 48 53 60 83 60 153 0
72 -28 178 -90 350 -28 76 -66 192 -85 258 l-35 120 0 248 0 247 -30 35 c-66
74 98 68 -1840 68 -1910 0 -1773 4 -1831 -58 -23 -25 -24 -32 -30 -252 l-6
-227 -66 -209 c-83 -262 -107 -375 -107 -504 0 -121 18 -181 66 -220 30 -25
33 -33 28 -60 -5 -24 -12 -32 -28 -32 -33 0 -124 29 -177 56 -26 13 -50 20
-54 16 -5 -4 -5 -1 -1 6 7 11 -5 17 -27 13 -5 -1 -6 2 -3 7 3 5 -7 20 -22 33
l-27 24 20 -25 20 -25 -22 19 c-12 10 -21 21 -21 25 1 3 -6 21 -15 39 -46 85
-26 184 74 385 146 290 159 338 169 612 7 207 9 224 33 280 22 50 27 75 27
151 0 102 -8 157 -22 148 -5 -3 -7 51 -5 137 3 91 8 144 15 147 8 2 8 9 -1 23
-10 17 -9 23 10 38 12 10 20 20 18 23 -2 2 4 4 13 4 9 0 31 3 47 7 22 5 26 5
14 -3 -9 -5 -29 -26 -44 -46 -23 -31 -25 -35 -9 -33 11 2 24 0 31 -4 21 -13
120 38 138 72 14 29 14 32 -1 38 -9 3 -59 1 -111 -6 -52 -7 -97 -10 -100 -7
-10 10 18 35 53 46 19 6 34 15 34 19 0 4 8 7 18 8 92 5 170 17 165 26 -4 6
-47 8 -116 4 l-109 -6 23 27 c13 15 29 30 34 34 6 4 163 8 351 8 l340 0 29
-30z m55 -12 c0 -10 -36 7 -45 22 -4 6 5 5 19 -2 14 -6 26 -15 26 -20z m1468
-33 c-3 -3 -9 2 -12 12 -6 14 -5 15 5 6 7 -7 10 -15 7 -18z m-1010 0 c-2 -5
-8 -10 -15 -11 -6 -1 -9 4 -6 12 6 16 27 15 21 -1z m-1168 1 c0 -2 -13 -6 -29
-8 -17 -2 -28 -1 -25 4 5 8 54 12 54 4z m1390 -6 c0 -5 -5 -10 -11 -10 -5 0
-7 5 -4 10 3 6 8 10 11 10 2 0 4 -4 4 -10z m77 -35 c-4 -8 -11 -15 -17 -15 -6
0 -6 7 2 20 14 22 24 19 15 -5z m88 -4 c-3 -12 -10 -21 -15 -21 -5 0 -4 11 2
25 13 29 23 26 13 -4z m855 12 c0 -7 6 -13 14 -13 18 0 30 -17 18 -24 -5 -3
-21 7 -36 23 -19 20 -22 28 -11 28 8 0 15 -6 15 -14z m-1620 -29 c0 -8 -19
-13 -24 -6 -3 5 1 9 9 9 8 0 15 -2 15 -3z m840 -4 c0 -5 -5 -10 -11 -10 -5 0
-7 5 -4 10 3 6 8 10 11 10 2 0 4 -4 4 -10z m-808 -35 c2 3 5 -2 5 -10 0 -19 0
-19 -23 7 -12 14 -13 18 -3 10 9 -6 18 -10 21 -7z m582 -19 c-3 -9 -10 -16
-15 -16 -5 0 -4 9 3 20 14 22 21 20 12 -4z m953 9 c0 -8 -4 -12 -9 -9 -5 3 -6
10 -3 15 9 13 12 11 12 -6z m-1435 -90 c3 3 11 -1 17 -9 7 -8 8 -17 3 -20 -5
-3 -31 18 -58 47 -37 39 -39 42 -8 14 22 -20 43 -35 46 -32z m1679 6 c-123
-112 -297 -204 -478 -252 -120 -33 -356 -38 -487 -10 -55 11 -104 17 -110 14
-6 -3 -7 -2 -3 3 4 4 -14 16 -40 25 -26 9 -57 19 -68 23 -14 6 -16 5 -6 -2 9
-7 10 -12 2 -16 -6 -4 -11 -2 -11 4 0 6 -4 8 -10 5 -5 -3 -7 0 -5 7 8 21 -65
54 -77 36 -8 -10 -9 -9 -5 3 4 11 -7 23 -32 37 -21 12 -41 19 -45 17 -3 -3 -4
-2 -1 2 3 3 -21 25 -53 48 -85 62 -115 105 -35 50 20 -13 41 -21 46 -18 6 3 7
1 3 -5 -7 -11 6 -17 27 -13 5 1 6 -2 3 -7 -6 -10 160 -92 246 -121 121 -41
217 -55 383 -55 278 1 460 56 710 219 55 35 102 64 105 64 3 0 -24 -26 -59
-58z m-2831 -525 c-7 -7 -10 77 -10 260 0 149 3 274 8 278 4 4 8 -113 10 -260
1 -172 -1 -271 -8 -278z m1298 389 c-3 -3 -9 2 -12 12 -6 14 -5 15 5 6 7 -7
10 -15 7 -18z m268 -153 c-5 -4 -106 46 -106 53 0 3 25 -7 55 -22 30 -15 53
-29 51 -31z m587 -209 c-18 -2 -48 -2 -65 0 -18 2 -4 4 32 4 36 0 50 -2 33 -4z
m1652 -31 c37 -16 85 -61 85 -79 0 -7 -17 4 -39 26 l-38 38 -199 5 c-327 8
-3194 8 -3259 0 l-60 -7 -5 -155 c-3 -85 -3 -309 -1 -497 l3 -343 173 0 c200
0 295 -8 295 -24 0 -23 -116 -36 -314 -36 l-197 0 -19 -44 c-26 -58 -53 -164
-46 -182 4 -11 53 -14 268 -16 l263 -3 3 -27 c3 -28 4 -28 73 -28 39 0 69 -4
69 -10 0 -6 -118 -11 -330 -12 -181 -1 -338 -2 -347 -2 -14 -1 -21 13 -32 57
-13 54 -12 66 6 140 11 45 35 113 53 150 l32 69 3 386 c2 213 4 422 4 464 1
74 3 79 32 105 17 16 40 31 52 35 12 4 792 6 1732 5 1374 -2 1716 -5 1740 -15z
m-3031 -93 c16 -46 1 -76 -46 -91 l-43 -15 -6 -59 -6 -59 -1 56 -2 56 -44 17
c-53 21 -68 48 -49 94 l13 33 87 -3 c84 -3 88 -4 97 -29z m330 15 c9 -8 16
-31 16 -50 0 -32 -4 -37 -45 -55 -35 -16 -45 -25 -45 -44 0 -37 -18 -40 -22
-3 -3 27 -8 33 -38 41 -51 13 -60 24 -60 73 0 41 1 43 33 47 82 10 146 7 161
-9z m348 -2 c14 -14 5 -84 -12 -93 -8 -4 -28 -14 -45 -21 -28 -12 -30 -17 -34
-78 l-5 -65 -5 64 c-6 66 -7 67 -66 93 -27 12 -30 18 -30 58 0 42 2 45 30 52
38 9 156 1 167 -10z m340 -4 c4 -7 8 -28 8 -46 0 -32 -16 -45 -82 -66 -15 -4
-18 -17 -18 -66 0 -79 -18 -78 -22 2 l-3 61 -42 14 c-25 9 -45 22 -48 34 -8
25 2 71 18 82 19 13 179 0 189 -15z m352 -9 c15 -44 1 -76 -41 -90 -57 -18
-63 -26 -65 -93 l-2 -61 -5 69 -6 69 -40 14 c-55 19 -66 42 -45 98 10 25 11
26 102 23 90 -3 93 -4 102 -29z m320 18 c13 -9 17 -23 14 -52 -2 -33 -8 -42
-33 -53 -55 -24 -60 -29 -66 -63 l-6 -34 -2 37 c-1 34 -4 37 -50 53 -27 9 -52
23 -55 31 -12 31 -6 73 12 83 25 15 165 14 186 -2z m345 -1 c15 -10 14 -81 -1
-94 -7 -6 -29 -14 -48 -19 -31 -8 -36 -14 -41 -49 -5 -34 -6 -35 -8 -9 -2 41
-10 50 -54 64 -44 15 -59 38 -51 80 5 22 13 31 33 35 36 6 156 0 170 -8z m299
8 l52 -7 0 -44 c0 -39 -3 -45 -32 -57 -18 -8 -41 -17 -50 -20 -14 -4 -18 -18
-20 -63 -1 -44 -2 -49 -5 -18 -6 74 -10 81 -53 94 -46 13 -70 52 -49 77 6 8 8
14 3 14 -5 0 0 7 10 15 21 16 61 18 144 9z m380 -2 c16 -11 26 -73 14 -90 -5
-7 -27 -19 -48 -27 -28 -9 -40 -20 -43 -37 l-4 -23 -6 24 c-5 18 -17 28 -41
34 -50 13 -60 24 -60 69 0 31 5 40 23 48 28 11 148 12 165 2z m-2884 -293 c12
-61 8 -69 -39 -89 l-45 -19 0 -58 c0 -32 -5 -65 -10 -73 -7 -10 -10 9 -10 63
0 67 -2 77 -17 77 -10 0 -33 9 -52 21 -31 18 -33 23 -26 57 4 20 9 40 11 44 3
5 45 8 93 8 l89 0 6 -31z m341 -9 c8 -49 3 -58 -52 -82 -42 -18 -43 -21 -37
-53 3 -18 1 -42 -5 -52 -8 -14 -10 -8 -11 34 0 52 0 52 -42 71 -56 24 -73 45
-59 70 6 11 8 22 5 25 -18 18 16 27 101 27 l93 0 7 -40z m336 13 c17 -45 3
-72 -46 -94 -45 -20 -45 -20 -46 -72 l-1 -52 -8 53 c-4 29 -10 54 -11 55 -2 1
-25 12 -51 25 -50 22 -52 28 -42 81 l7 31 93 0 c94 0 95 0 105 -27z m330 0
c16 -43 7 -66 -36 -90 -36 -20 -41 -27 -51 -80 l-12 -58 -1 58 c-1 46 -5 59
-18 63 -80 23 -104 54 -84 107 10 27 12 27 101 27 89 0 91 0 101 -27z m342
-10 c6 -50 -5 -69 -47 -83 -39 -12 -46 -25 -46 -81 0 -21 -4 -39 -10 -39 -5 0
-10 24 -10 53 l0 54 -40 12 c-46 14 -80 55 -61 74 6 6 11 19 11 29 0 16 10 18
99 18 l99 0 5 -37z m325 -13 c3 -44 2 -45 -45 -70 -47 -24 -48 -26 -54 -80
l-6 -55 -1 58 c-2 53 -4 58 -29 67 -73 27 -92 45 -78 78 5 9 9 22 10 27 1 6 3
14 3 18 1 4 46 6 100 5 l97 -3 3 -45z m343 48 c16 -82 10 -96 -51 -126 -32
-16 -35 -22 -40 -69 -3 -28 -9 -55 -14 -60 -4 -4 -5 20 -1 54 l7 62 -51 22
c-56 24 -69 47 -52 92 10 27 11 27 106 27 52 0 95 -1 96 -2z m335 -33 c9 -49
1 -63 -51 -86 -45 -20 -50 -28 -58 -94 -2 -17 -5 -8 -6 22 -1 51 -2 52 -45 71
-54 24 -59 33 -51 82 l7 40 98 0 99 0 7 -35z m338 -6 c8 -50 5 -55 -52 -82
-47 -22 -47 -22 -44 -69 2 -26 -1 -49 -7 -53 -7 -4 -11 12 -11 49 l0 54 -45
22 c-54 26 -72 52 -50 73 8 8 12 17 9 20 -18 18 16 27 100 27 l93 0 7 -41z
m352 17 c12 -48 1 -70 -46 -94 l-45 -22 -6 -73 -5 -72 -2 71 -2 72 -47 23
c-52 26 -61 46 -44 92 10 27 12 27 101 27 86 0 90 -1 96 -24z m235 -233 c3
-378 7 -454 23 -466 8 -7 27 -43 42 -82 21 -56 27 -88 28 -160 1 -49 -2 -91
-6 -92 -25 -9 -778 -2 -778 7 0 5 42 11 93 12 l92 3 3 27 3 28 282 2 282 3 -3
34 c-2 19 -17 72 -34 118 l-30 83 -253 0 c-218 0 -256 2 -269 16 -22 21 -14
30 34 38 33 5 40 10 40 29 0 18 -11 28 -50 44 -42 18 -50 26 -50 47 0 14 4 26
9 26 5 0 8 8 7 18 -1 15 10 17 99 17 l100 0 3 -38 c4 -47 -9 -63 -58 -78 -28
-8 -39 -18 -43 -35 l-4 -24 202 0 202 0 6 152 c4 83 7 220 7 305 0 95 4 153
10 153 6 0 10 -70 11 -187z m-3661 -48 c0 -80 -15 -151 -47 -224 -41 -91 -83
-211 -103 -291 -15 -62 -19 -68 -19 -38 -1 49 31 212 62 313 13 44 39 131 58
192 19 62 37 113 42 113 4 0 7 -29 7 -65z m534 47 c3 -5 8 -27 12 -50 l6 -41
-48 -23 c-46 -22 -49 -26 -53 -68 l-5 -45 -5 49 c-6 47 -8 50 -41 59 -55 14
-73 35 -65 77 4 19 9 38 11 42 7 11 182 10 188 0z m343 -23 c25 -42 11 -74
-42 -95 l-45 -17 -2 -56 -2 -56 -3 57 c-4 57 -4 58 -43 68 -57 15 -73 35 -65
79 4 20 9 39 12 44 2 4 43 6 89 5 80 -3 86 -5 101 -29z m333 12 c29 -55 4 -99
-62 -115 -26 -6 -28 -10 -30 -64 l-2 -57 -3 53 c-4 52 -5 53 -54 77 -49 25
-50 26 -47 67 4 50 16 55 120 57 57 1 69 -2 78 -18z m324 13 c11 -4 16 -19 16
-50 0 -47 -17 -65 -72 -78 -27 -6 -28 -9 -30 -69 -1 -43 -2 -50 -5 -22 -6 71
-11 80 -53 99 -47 21 -59 40 -53 83 4 27 10 33 37 36 54 7 144 7 160 1z m340
-33 c9 -61 3 -69 -76 -94 -12 -4 -18 -22 -23 -64 -10 -90 -13 -94 -14 -16 l-1
71 -35 12 c-46 15 -68 48 -59 86 4 16 12 32 18 36 6 4 50 8 97 8 l86 0 7 -39z
m331 -7 c8 -53 3 -60 -51 -79 -38 -13 -39 -14 -44 -72 -5 -54 -6 -56 -13 -23
-3 19 -8 46 -9 59 -2 18 -11 27 -34 33 -47 12 -67 39 -59 81 8 41 14 43 131
46 l72 1 7 -46z m324 37 c8 -5 11 -16 8 -24 -3 -8 -1 -19 5 -25 21 -21 -3 -51
-53 -69 l-49 -18 -2 -65 -2 -65 -3 67 -4 66 -42 14 c-44 14 -85 66 -59 75 6 3
12 13 12 23 0 14 9 20 33 23 62 8 142 7 156 -2z m327 -8 c3 -10 10 -26 15 -36
15 -28 -12 -61 -60 -76 -40 -12 -41 -13 -41 -56 0 -27 -5 -45 -11 -45 -8 0
-10 14 -6 45 l7 44 -40 12 c-56 17 -73 39 -65 82 8 41 14 44 123 46 61 1 73
-2 78 -16z m350 6 c11 -18 15 -73 7 -86 -5 -6 -31 -20 -58 -30 l-50 -19 -50
25 c-45 24 -50 29 -49 59 3 61 5 62 103 62 55 0 92 -4 97 -11z m514 -104 c0
-9 36 -124 80 -255 79 -235 102 -340 83 -374 -7 -13 -13 1 -26 59 -9 42 -47
147 -84 233 -68 156 -68 157 -69 255 -1 53 2 97 7 97 5 0 9 -7 9 -15z m-3377
-132 c31 -5 38 -9 34 -24 -3 -11 -1 -19 5 -19 5 0 8 -12 6 -27 -2 -22 -13 -33
-47 -49 -25 -12 -48 -30 -52 -40 -7 -18 -8 -18 -8 -1 -1 11 -15 24 -38 34 -21
8 -46 22 -55 31 -19 16 -25 52 -9 52 5 0 7 9 4 19 -4 16 1 20 29 24 57 7 92 7
131 0z m360 -39 c8 -50 2 -59 -53 -83 -27 -12 -51 -29 -53 -38 -4 -14 -5 -13
-6 4 -1 17 -10 25 -41 33 -21 6 -46 17 -55 26 -21 21 -19 54 3 54 13 0 14 2 3
9 -32 20 3 31 98 31 l98 0 6 -36z m320 0 c8 -49 2 -60 -49 -81 -37 -15 -44
-22 -44 -45 0 -16 -4 -28 -10 -28 -5 0 -10 13 -10 28 0 25 -6 30 -40 41 -38
11 -70 42 -70 68 0 7 6 13 14 13 9 0 12 7 9 20 -5 19 0 20 95 20 l99 0 6 -36z
m317 17 c0 -11 5 -21 12 -23 7 -3 9 -14 4 -31 -4 -19 -19 -32 -51 -46 -39 -17
-45 -24 -45 -51 0 -19 -4 -29 -10 -25 -6 4 -10 14 -9 23 3 34 -2 40 -46 56
-33 13 -47 25 -52 44 -4 16 -2 27 5 30 7 2 10 8 6 13 -13 21 13 29 97 29 81 0
89 -2 89 -19z m341 -8 c17 -45 8 -66 -41 -90 -37 -17 -46 -27 -51 -55 l-6 -33
-2 33 c-1 30 -6 35 -51 54 -36 15 -52 28 -57 45 -3 15 -1 28 7 33 6 4 11 10
11 14 -3 23 6 26 89 26 89 0 91 0 101 -27z m332 -9 c8 -48 -4 -68 -53 -88 -35
-14 -40 -20 -41 -48 l-2 -33 -6 34 c-5 27 -13 37 -37 45 -64 23 -76 37 -68 84
l7 42 97 0 97 0 6 -36z m330 0 c8 -49 2 -59 -48 -83 -36 -17 -44 -26 -48 -53
l-4 -33 -1 36 c-2 32 -6 37 -31 42 -44 9 -86 49 -76 73 4 10 7 27 6 37 -2 15
8 17 97 17 l99 0 6 -36z m331 9 c0 -13 3 -23 8 -23 16 0 8 -27 -14 -48 -13
-11 -35 -24 -50 -27 -25 -6 -28 -12 -28 -46 0 -21 -3 -39 -7 -39 -5 0 -8 16
-8 36 0 32 -4 37 -38 49 -20 7 -44 18 -52 25 -17 14 -20 60 -4 60 8 0 9 4 0
13 -19 23 0 28 99 25 91 -3 95 -4 94 -25z m324 2 c-3 -13 0 -26 6 -28 20 -8
-8 -41 -52 -62 -39 -19 -41 -23 -42 -62 0 -24 -4 -43 -10 -43 -5 0 -10 20 -10
45 0 34 -4 45 -15 45 -50 0 -107 58 -82 82 8 7 12 20 9 30 -4 16 5 18 98 18
l102 0 -4 -25z m-3668 -164 c0 -5 -9 -11 -20 -14 -20 -5 -26 3 -13 16 9 10 33
8 33 -2z m3807 -78 c-4 -3 3 -17 15 -30 12 -12 18 -26 14 -30 -9 -10 -2599
-17 -2673 -8 -29 4 -53 11 -53 16 0 6 11 21 25 34 l24 25 1327 0 c730 0 1324
-3 1321 -7z m13 -104 c0 -6 -5 -19 -10 -30 -11 -19 -36 -19 -1339 -19 l-1329
0 -16 25 c-9 13 -16 27 -16 30 0 3 610 5 1355 5 952 0 1355 -3 1355 -11z
m-3943 -105 c-3 -3 -12 -4 -19 -1 -8 3 -5 6 6 6 11 1 17 -2 13 -5z m1473 -40
c0 -13 -4 -24 -10 -24 -5 0 -10 14 -10 31 0 17 4 28 10 24 6 -3 10 -17 10 -31z
m2270 12 c0 -8 -4 -18 -10 -21 -5 -3 -10 3 -10 14 0 12 5 21 10 21 6 0 10 -6
10 -14z m1258 -181 c-5 -107 -18 -146 -67 -198 -14 -16 -39 -36 -56 -44 -75
-40 -235 -59 -235 -29 0 11 22 16 91 22 90 7 91 7 150 56 54 46 86 84 77 93
-2 2 -29 -19 -61 -47 -64 -56 -121 -78 -204 -78 l-53 0 0 94 0 93 52 7 c121
16 247 79 284 140 16 27 19 29 22 11 3 -11 2 -65 0 -120z m-4658 5 c0 -114 14
-144 93 -197 53 -36 180 -69 228 -59 26 5 29 3 29 -20 0 -24 -2 -25 -47 -19
-161 20 -244 57 -298 133 -29 42 -30 49 -33 165 -3 110 -2 120 12 108 13 -11
16 -34 16 -111z m133 10 c36 -16 174 -50 203 -50 2 0 4 -45 4 -100 l0 -100
-42 6 c-134 19 -231 64 -253 117 -7 18 -15 69 -17 114 l-5 81 32 -23 c17 -14
52 -34 78 -45z m4032 -11 c4 -19 3 -35 -4 -42 -14 -14 -2896 -23 -3388 -12
l-293 7 0 32 c0 18 3 36 7 39 3 4 831 7 1839 7 l1832 0 7 -31z m-3705 -144 c0
-154 -11 -203 -24 -102 -8 67 -8 221 0 241 17 44 24 2 24 -139z m3744 118 c11
-35 4 -273 -8 -273 -7 0 -12 46 -14 145 -3 94 0 145 6 145 6 0 13 -8 16 -17z
m739 -10 c-13 -2 -33 -2 -45 0 -13 2 -3 4 22 4 25 0 35 -2 23 -4z m-1120 -41
l337 -3 0 -77 c0 -73 -15 -124 -27 -94 -2 6 -11 12 -19 12 -16 0 -19 16 -4 25
6 3 10 21 10 39 0 46 -30 71 -87 71 -37 0 -49 -5 -69 -28 -30 -35 -31 -70 -2
-97 l22 -20 -1651 0 -1651 0 14 29 c19 37 10 75 -23 101 -67 53 -172 -10 -143
-86 9 -24 8 -25 -17 -22 -27 3 -28 5 -31 75 l-4 73 399 3 c528 3 2519 3 2946
-1z m-3185 -80 c4 -25 -19 -38 -45 -26 -10 4 -22 6 -28 5 -5 -2 1 9 15 24 28
30 54 29 58 -3z m3427 12 c20 -21 3 -44 -32 -44 -28 0 -40 24 -23 45 16 19 35
19 55 -1z m103 -143 c5 -14 -589 -17 -2375 -13 -1030 2 -1313 5 -1313 15 0 17
3682 15 3688 -2z m-3288 -321 c0 -5 -2 -10 -4 -10 -3 0 -8 5 -11 10 -3 6 -1
10 4 10 6 0 11 -4 11 -10z m3001 -7 c13 -16 12 -17 -3 -4 -17 13 -22 21 -14
21 2 0 10 -8 17 -17z"/>
<path d="M606 4568 c-7 -27 5 -41 30 -36 12 2 20 13 22 31 3 23 0 27 -21 27
-17 0 -26 -7 -31 -22z"/>
<path d="M2332 4033 c37 -2 100 -2 140 0 40 1 10 3 -67 3 -77 0 -110 -1 -73
-3z"/>
<path d="M1396 4254 c-4 -9 -4 -19 -1 -22 2 -3 7 3 11 12 4 9 4 19 1 22 -2 3
-7 -3 -11 -12z"/>
<path d="M5522 4230 c0 -14 2 -19 5 -12 2 6 2 18 0 25 -3 6 -5 1 -5 -13z"/>
<path d="M830 4185 c0 -9 9 -15 24 -15 13 0 26 7 30 15 3 9 0 15 -9 15 -8 0
-15 -4 -15 -10 0 -5 -5 -10 -11 -10 -5 0 -7 5 -4 10 3 6 1 10 -4 10 -6 0 -11
-7 -11 -15z"/>
<path d="M5330 4200 c-20 -12 -4 -40 24 -40 19 0 23 4 19 19 -6 23 -25 32 -43
21z"/>
<path d="M1452 3693 c7 -18 16 -33 21 -33 4 0 5 5 2 10 -3 6 -1 10 4 10 6 0
11 5 11 11 0 5 -5 7 -11 4 -6 -4 -17 1 -24 11 -13 17 -13 15 -3 -13z"/>
<path d="M3122 3763 c-8 -14 -9 -24 -2 -28 12 -7 24 18 18 37 -3 8 -9 5 -16
-9z"/>
<path d="M5715 3803 c-11 -3 -28 -11 -38 -18 -18 -13 -18 -14 1 -24 27 -14
149 -14 158 0 16 27 -68 56 -121 42z"/>
<path d="M4900 3766 c0 -2 7 -6 15 -10 8 -3 15 -1 15 4 0 6 -7 10 -15 10 -8 0
-15 -2 -15 -4z"/>
<path d="M4915 3730 c-3 -5 -1 -10 4 -10 6 0 11 5 11 10 0 6 -2 10 -4 10 -3 0
-8 -4 -11 -10z"/>
<path d="M968 3803 c12 -2 32 -2 45 0 12 2 2 4 -23 4 -25 0 -35 -2 -22 -4z"/>
<path d="M3786 3721 c-7 -10 42 -33 55 -26 5 4 9 1 9 -5 0 -6 5 -8 11 -4 8 4
-1 14 -22 25 -39 21 -46 22 -53 10z"/>
<path d="M3874 3678 c-4 -7 -3 -8 4 -4 7 4 12 2 12 -4 0 -6 5 -8 10 -5 11 7 4
25 -10 25 -5 0 -12 -5 -16 -12z"/>
<path d="M2543 3629 c-24 -17 -43 -32 -43 -35 0 -3 20 9 45 26 25 17 45 33 45
35 0 7 -2 6 -47 -26z"/>
<path d="M3540 3707 c0 -2 15 -16 33 -33 l32 -29 -29 33 c-28 30 -36 37 -36
29z"/>
<path d="M2739 3553 c-13 -16 -12 -17 4 -4 16 13 21 21 13 21 -2 0 -10 -8 -17
-17z"/>
<path d="M3520 3641 c0 -6 4 -13 10 -16 6 -3 7 1 4 9 -7 18 -14 21 -14 7z"/>
<path d="M4866 3391 c-6 -9 20 -29 59 -46 15 -7 1 -11 -55 -15 l-75 -5 70 -8
c232 -27 221 -29 185 30 -13 23 -29 33 -52 37 -83 12 -128 15 -132 7z"/>
<path d="M1535 3250 c-4 -6 15 -11 47 -12 88 -4 119 -1 131 11 8 8 -12 11 -80
11 -51 0 -95 -4 -98 -10z"/>
<path d="M1229 3011 c-33 -33 -37 -67 -14 -111 19 -37 43 -50 95 -50 56 0 90
34 90 90 0 58 -42 100 -100 100 -33 0 -48 -6 -71 -29z m111 -21 c13 -25 -1
-56 -31 -65 -24 -8 -59 19 -59 46 0 38 72 53 90 19z m34 -54 c-13 -54 -79 -73
-121 -34 -37 35 -28 51 13 23 44 -30 64 -32 71 -5 3 11 9 20 14 20 5 0 9 10 9
22 0 15 3 19 11 11 5 -5 7 -22 3 -37z"/>
<path d="M4891 3026 c-105 -58 -31 -214 84 -176 45 15 65 44 65 96 0 77 -78
119 -149 80z m95 -44 c7 -15 13 -19 16 -11 3 9 6 8 11 -4 15 -39 -77 -101 -98
-67 -4 6 -12 7 -18 3 -8 -4 -7 -1 1 9 10 13 10 18 1 24 -8 4 -9 3 -5 -4 4 -7
2 -12 -4 -12 -11 0 -5 41 12 73 14 27 69 19 84 -11z"/>
<path d="M4969 2923 l-24 -28 28 24 c25 23 32 31 24 31 -2 0 -14 -12 -28 -27z"/>
<path d="M2700 2980 c8 -5 22 -9 30 -9 10 0 8 3 -5 9 -27 12 -43 12 -25 0z"/>
<path d="M5407 1233 c-48 -67 -61 -93 -46 -93 24 0 89 82 89 112 0 15 -2 28
-4 28 -2 0 -20 -21 -39 -47z"/>
<path d="M975 1206 c17 -7 32 -11 35 -9 8 7 -24 23 -45 22 -15 0 -13 -3 10
-13z"/>
<path d="M962 1166 c9 -11 100 -37 94 -27 -3 5 -18 11 -33 14 -16 3 -37 9 -48
13 -11 4 -17 4 -13 0z"/>
<path d="M3486 5125 c-9 -26 -7 -32 5 -12 6 10 9 21 6 23 -2 3 -7 -2 -11 -11z"/>
<path d="M3559 5119 c-9 -17 -8 -20 2 -14 9 6 11 3 6 -9 -4 -10 -7 -21 -7 -24
0 -4 -4 -1 -8 6 -6 8 -16 -1 -32 -30 -14 -26 -18 -38 -8 -31 8 7 17 10 21 7 3
-3 4 5 1 18 -2 12 -1 17 2 9 4 -9 16 1 35 33 32 50 38 71 13 40 -13 -16 -15
-16 -10 -1 7 24 -1 21 -15 -4z"/>
<path d="M2277 5113 c4 -11 8 -13 11 -5 2 7 9 9 14 6 7 -4 8 -2 4 4 -12 19
-36 15 -29 -5z"/>
<path d="M3769 5113 c-13 -17 -13 -17 5 -3 18 14 19 13 13 -4 -6 -16 -5 -17 8
-6 14 12 12 30 -4 30 -5 0 -15 -8 -22 -17z"/>
<path d="M2740 5111 c0 -6 4 -13 10 -16 6 -3 7 1 4 9 -7 18 -14 21 -14 7z"/>
<path d="M2766 5083 c-6 -14 -5 -15 5 -6 7 7 10 15 7 18 -3 3 -9 -2 -12 -12z"/>
<path d="M3442 5072 c-7 -21 -7 -29 2 -29 6 0 11 13 12 29 1 35 -1 35 -14 0z"/>
<path d="M4000 5084 c0 -8 5 -14 10 -14 6 0 13 0 17 0 17 -1 9 26 -8 27 -11 1
-19 -5 -19 -13z"/>
<path d="M2856 5082 c-4 -6 -1 -22 6 -34 7 -13 11 -27 9 -33 -1 -6 3 -5 9 1 8
8 8 20 -2 45 -9 21 -17 29 -22 21z"/>
<path d="M3663 5078 c-15 -20 -25 -38 -20 -38 3 0 12 11 21 25 17 26 16 35 -1
13z"/>
<path d="M3708 5036 c-52 -68 -55 -73 -37 -59 9 7 18 10 21 7 3 -3 19 12 35
33 41 53 44 60 27 60 -8 0 -29 -19 -46 -41z m17 -11 c-15 -19 -30 -33 -32 -31
-3 3 7 21 22 41 15 19 30 33 32 31 3 -3 -7 -21 -22 -41z"/>
<path d="M2190 5050 c0 -18 3 -19 20 -10 22 12 18 30 -6 30 -8 0 -14 -9 -14
-20z"/>
<path d="M2577 5060 c7 -8 20 -15 29 -16 9 -1 13 1 9 4 -4 4 -10 7 -13 7 -4 0
-14 4 -22 9 -12 7 -13 6 -3 -4z"/>
<path d="M2696 5056 c5 -14 4 -17 -5 -11 -10 6 -11 3 -2 -14 7 -11 13 -21 14
-21 7 0 1 49 -6 56 -4 5 -5 0 -1 -10z"/>
<path d="M3281 5044 c0 -11 3 -14 6 -6 3 7 2 16 -1 19 -3 4 -6 -2 -5 -13z"/>
<path d="M3815 4998 c-73 -82 -90 -102 -72 -89 20 16 121 131 115 131 -3 0
-22 -19 -43 -42z"/>
<path d="M2509 5008 c14 -16 27 -26 29 -23 3 3 15 -3 26 -12 21 -18 21 -18 2
5 -11 12 -22 20 -24 17 -3 -3 -17 5 -31 17 l-26 23 24 -27z"/>
<path d="M2604 5022 c4 -3 14 -7 22 -8 9 -1 13 0 10 4 -4 3 -14 7 -22 8 -9 1
-13 0 -10 -4z"/>
<path d="M3623 5018 c-15 -20 -25 -38 -20 -38 3 0 12 11 21 25 17 26 16 35 -1
13z"/>
<path d="M4179 5013 c-13 -17 -13 -17 6 -3 11 8 22 16 24 17 2 2 0 3 -6 3 -6
0 -17 -8 -24 -17z"/>
<path d="M3779 4993 l-24 -28 28 24 c25 23 32 31 24 31 -2 0 -14 -12 -28 -27z"/>
<path d="M3291 4994 c0 -11 3 -14 6 -6 3 7 2 16 -1 19 -3 4 -6 -2 -5 -13z"/>
<path d="M3516 4993 c-6 -14 -5 -15 5 -6 7 7 10 15 7 18 -3 3 -9 -2 -12 -12z"/>
<path d="M2125 4992 c-9 -9 -5 -32 5 -32 5 0 6 7 3 17 -4 10 -2 14 5 9 6 -3
13 -3 16 2 5 9 -20 12 -29 4z"/>
<path d="M2454 4943 c51 -54 76 -69 76 -46 0 4 -3 3 -7 -1 -4 -3 -34 19 -67
51 l-61 58 59 -62z"/>
<path d="M2624 4992 c4 -3 14 -7 22 -8 9 -1 13 0 10 4 -4 3 -14 7 -22 8 -9 1
-13 0 -10 -4z"/>
<path d="M2716 4988 c3 -5 10 -6 15 -3 13 9 11 12 -6 12 -8 0 -12 -4 -9 -9z"/>
<path d="M3546 4940 c-21 -34 -35 -64 -30 -71 4 -7 3 -9 -3 -6 -6 4 -21 -9
-34 -28 -24 -35 -39 -44 -39 -25 0 6 11 33 25 60 29 57 31 67 10 50 -8 -7 -15
-17 -15 -23 0 -13 -70 -81 -77 -74 -3 3 4 30 15 59 33 87 35 96 17 68 l-16
-25 5 30 c4 18 -6 5 -24 -35 -31 -65 -36 -120 -12 -128 7 -2 12 1 12 7 0 17
26 13 41 -6 13 -16 12 -17 -3 -5 -9 7 -19 9 -22 4 -3 -5 21 -17 52 -27 31 -9
74 -26 95 -36 42 -22 51 -17 10 5 -16 8 -23 15 -18 16 6 0 22 -7 37 -14 25
-13 29 -13 38 3 5 10 6 22 2 26 -4 5 -2 5 5 1 17 -9 28 14 12 26 -11 8 -11 9
3 5 20 -7 105 89 85 96 -8 3 -4 14 13 34 14 16 4 7 -22 -21 -26 -28 -44 -54
-41 -60 3 -5 1 -6 -5 -2 -16 10 -27 -15 -11 -26 11 -8 11 -9 -2 -5 -10 3 -29
-8 -49 -28 -34 -35 -65 -39 -35 -5 10 11 14 24 9 31 -4 7 -3 10 3 6 10 -7 28
20 25 36 -1 4 2 7 7 7 4 0 25 25 45 56 21 31 32 52 24 48 -7 -5 -16 -9 -20 -9
-3 0 -10 -4 -15 -9 -5 -5 -3 -6 5 -2 6 4 12 3 12 -2 0 -12 -25 -33 -32 -27 -3
3 -13 -6 -22 -20 -9 -14 -14 -25 -12 -25 3 0 -12 -18 -32 -41 -20 -23 -37 -48
-37 -58 0 -17 -32 -17 -49 -1 -5 5 2 6 15 3 19 -4 21 -3 13 7 -9 9 -6 22 15
53 38 58 86 146 66 122 -9 -11 -20 -27 -25 -35 -5 -8 -11 -12 -14 -9 -3 3 6
22 20 43 14 21 24 39 22 41 -2 2 -21 -23 -42 -55z m-6 -45 c0 -8 -4 -15 -10
-15 -5 0 -7 7 -4 15 4 8 8 15 10 15 2 0 4 -7 4 -15z m76 -13 c-17 -16 -18 -16
-5 5 7 12 15 20 18 17 3 -2 -3 -12 -13 -22z m82 -12 c-7 -10 -14 -17 -17 -15
-4 4 18 35 25 35 2 0 -1 -9 -8 -20z m-248 -14 c0 -2 -8 -10 -17 -17 -16 -13
-17 -12 -4 4 13 16 21 21 21 13z m110 -56 c0 -5 -5 -10 -11 -10 -5 0 -7 5 -4
10 3 6 8 10 11 10 2 0 4 -4 4 -10z m-100 -20 c0 -5 -2 -10 -4 -10 -3 0 -8 5
-11 10 -3 6 -1 10 4 10 6 0 11 -4 11 -10z"/>
<path d="M3780 4874 c-63 -64 -109 -113 -101 -109 9 6 12 4 7 -4 -4 -6 -12 -9
-17 -6 -14 9 -56 -28 -51 -44 3 -10 0 -12 -12 -8 -24 9 -20 2 10 -18 15 -9 24
-13 20 -7 -3 5 53 67 124 138 71 71 125 131 119 133 -6 2 -3 11 7 22 9 10 15
19 13 19 -2 0 -56 -52 -119 -116z m16 -8 c-112 -109 -124 -114 -22 -8 50 50
92 89 94 87 3 -2 -30 -38 -72 -79z"/>
<path d="M2554 4953 c10 -12 23 -21 28 -20 6 1 13 -4 16 -12 3 -10 0 -11 -9
-5 -12 7 -12 5 0 -9 17 -21 16 -21 18 2 1 11 -5 25 -13 32 -8 6 -14 8 -14 4 0
-5 -10 0 -22 11 l-23 19 19 -22z"/>
<path d="M2644 4962 c4 -3 14 -7 22 -8 9 -1 13 0 10 4 -4 3 -14 7 -22 8 -9 1
-13 0 -10 -4z"/>
<path d="M3282 4940 c0 -14 2 -19 5 -12 2 6 2 18 0 25 -3 6 -5 1 -5 -13z"/>
<path d="M3316 4933 c-6 -14 -5 -15 5 -6 7 7 10 15 7 18 -3 3 -9 -2 -12 -12z"/>
<path d="M3447 4915 c-9 -19 -13 -35 -9 -35 8 0 34 61 29 67 -2 1 -11 -13 -20
-32z"/>
<path d="M2667 4926 c24 -40 47 -64 59 -59 10 4 8 13 -11 37 -22 30 -63 48
-48 22z m53 -51 c0 -4 -9 4 -20 18 -11 14 -20 28 -20 32 0 4 9 -4 20 -18 11
-14 20 -28 20 -32z"/>
<path d="M3930 4899 c-25 -22 -39 -38 -32 -34 6 3 12 1 12 -4 0 -11 -15 -15
-35 -11 -5 1 -7 -2 -3 -6 4 -4 2 -14 -5 -23 -6 -8 16 7 51 34 35 27 66 54 69
59 4 6 -3 3 -14 -6 -30 -27 -40 -21 -13 7 35 37 21 30 -30 -16z m5 -19 c-3 -5
-11 -10 -16 -10 -6 0 -7 5 -4 10 3 6 11 10 16 10 6 0 7 -4 4 -10z"/>
<path d="M5300 4889 c-9 -16 -8 -25 6 -40 9 -10 22 -19 29 -19 7 0 20 9 29 19
23 25 6 61 -29 61 -14 0 -29 -8 -35 -21z"/>
<path d="M2160 4852 c0 -4 9 -13 19 -19 15 -10 21 -10 25 0 2 7 8 2 12 -11 4
-14 10 -19 13 -13 5 7 14 6 29 -5 12 -8 20 -19 17 -24 -3 -5 15 -23 40 -40 31
-21 43 -26 38 -14 -6 15 -4 15 23 -1 l29 -17 -22 20 c-14 13 -31 18 -45 15
-16 -3 -19 -2 -10 5 10 7 -7 22 -63 60 -70 48 -105 63 -105 44z m160 -98 c0
-2 -9 0 -20 6 -11 6 -20 13 -20 16 0 2 9 0 20 -6 11 -6 20 -13 20 -16z"/>
<path d="M2105 4820 c-3 -5 -1 -10 4 -10 6 0 11 5 11 10 0 6 -2 10 -4 10 -3 0
-8 -4 -11 -10z"/>
<path d="M3213 4745 c0 -33 2 -45 4 -27 2 18 2 45 0 60 -2 15 -4 0 -4 -33z"/>
<path d="M3068 4763 c5 -21 7 -23 10 -9 2 10 0 22 -6 28 -6 6 -7 0 -4 -19z"/>
<path d="M3134 4738 c1 -36 5 -58 12 -58 11 0 10 14 -9 95 -2 11 -4 -6 -3 -37z"/>
<path d="M3252 4770 c0 -14 2 -19 5 -12 2 6 2 18 0 25 -3 6 -5 1 -5 -13z"/>
<path d="M3337 4764 c-4 -4 -7 -14 -7 -23 0 -11 3 -12 11 -4 6 6 10 16 7 23
-2 6 -7 8 -11 4z"/>
<path d="M2932 4738 c7 -15 15 -23 17 -17 2 6 -4 18 -13 27 -15 15 -15 15 -4
-10z"/>
<path d="M2976 4737 c3 -10 9 -15 12 -12 3 3 0 11 -7 18 -10 9 -11 8 -5 -6z"/>
<path d="M3427 4743 c-4 -3 -7 -11 -7 -17 0 -6 5 -5 12 2 6 6 9 14 7 17 -3 3
-9 2 -12 -2z"/>
<path d="M5492 4733 c5 -26 38 -29 38 -4 0 15 -6 21 -21 21 -14 0 -19 -5 -17
-17z"/>
<path d="M3292 4710 c0 -19 2 -27 5 -17 2 9 2 25 0 35 -3 9 -5 1 -5 -18z"/>
<path d="M3040 4718 c0 -9 5 -20 10 -23 13 -8 13 5 0 25 -8 13 -10 13 -10 -2z"/>
<path d="M3072 4709 c1 -12 8 -24 15 -26 7 -3 9 3 6 17 -8 29 -25 37 -21 9z"/>
<path d="M3489 4713 c-13 -16 -12 -17 4 -4 16 13 21 21 13 21 -2 0 -10 -8 -17
-17z"/>
<path d="M2907 4696 c3 -15 10 -29 15 -32 6 -4 7 2 3 17 -10 35 -23 45 -18 15z"/>
<path d="M3112 4700 c0 -14 2 -19 5 -12 2 6 2 18 0 25 -3 6 -5 1 -5 -13z"/>
<path d="M3170 4708 c0 -9 5 -20 11 -23 17 -11 20 0 4 21 -13 17 -14 17 -15 2z"/>
<path d="M3326 4703 c-4 -9 -2 -21 4 -27 7 -7 10 -2 10 17 0 31 -5 34 -14 10z"/>
<path d="M3370 4715 c-8 -45 -8 -47 2 -37 5 5 8 18 5 28 -3 11 -6 15 -7 9z"/>
<path d="M2991 4694 c0 -11 3 -14 6 -6 3 7 2 16 -1 19 -3 4 -6 -2 -5 -13z"/>
<path d="M3016 4697 c3 -10 9 -15 12 -12 3 3 0 11 -7 18 -10 9 -11 8 -5 -6z"/>
<path d="M2952 4688 c2 -6 10 -14 16 -16 7 -2 10 2 6 12 -7 18 -28 22 -22 4z"/>
<path d="M2830 4676 c0 -2 7 -7 16 -10 8 -3 12 -2 9 4 -6 10 -25 14 -25 6z"/>
<path d="M3384 4654 c-18 -15 -18 -15 2 -5 12 6 25 7 29 3 5 -4 5 -1 1 6 -9
15 -8 15 -32 -4z"/>
<path d="M3607 4663 c-4 -3 -7 -11 -7 -17 0 -6 5 -5 12 2 6 6 9 14 7 17 -3 3
-9 2 -12 -2z"/>
<path d="M3634 4636 c-3 -9 -9 -14 -14 -11 -4 2 -17 -6 -29 -19 -16 -17 -18
-23 -6 -23 18 0 71 54 62 63 -4 4 -9 -1 -13 -10z"/>
<path d="M2773 4615 c0 -8 4 -12 9 -9 5 3 6 10 3 15 -9 13 -12 11 -12 -6z"/>
<path d="M475 3720 c45 -11 103 -11 110 0 4 6 -20 10 -67 9 -55 -1 -66 -3 -43
-9z"/>
<path d="M456 3639 c-21 -31 3 -79 41 -79 17 0 53 36 53 54 0 43 -68 61 -94
25z"/>
<path d="M277 3357 c-8 -22 16 -50 39 -45 13 2 19 12 19 28 0 20 -6 26 -26 28
-16 2 -29 -3 -32 -11z"/>
<path d="M5604 1941 c4 -5 0 -12 -6 -14 -7 -3 6 -6 30 -6 42 -1 56 11 26 23
-24 9 -56 7 -50 -3z"/>
<path d="M5730 1931 c0 -5 6 -11 14 -14 19 -8 57 3 50 14 -7 12 -64 12 -64 0z"/>
<path d="M5688 1923 c7 -3 16 -2 19 1 4 3 -2 6 -13 5 -11 0 -14 -3 -6 -6z"/>
<path d="M5693 1843 c15 -2 39 -2 55 0 15 2 2 4 -28 4 -30 0 -43 -2 -27 -4z"/>
<path d="M381 1734 c0 -11 3 -14 6 -6 3 7 2 16 -1 19 -3 4 -6 -2 -5 -13z"/>
<path d="M5960 1740 c0 -5 15 -10 33 -9 27 0 29 2 12 9 -28 12 -45 12 -45 0z"/>
<path d="M398 1623 c18 -2 45 -2 60 0 15 2 0 4 -33 4 -33 0 -45 -2 -27 -4z"/>
<path d="M348 1453 c17 -2 47 -2 65 0 17 2 3 4 -33 4 -36 0 -50 -2 -32 -4z"/>
<path d="M383 1373 c9 -2 23 -2 30 0 6 3 -1 5 -18 5 -16 0 -22 -2 -12 -5z"/>
<path d="M408 1213 c12 -2 32 -2 45 0 12 2 2 4 -23 4 -25 0 -35 -2 -22 -4z"/>
<path d="M5628 1123 c12 -2 30 -2 40 0 9 3 -1 5 -23 4 -22 0 -30 -2 -17 -4z"/>
<path d="M2855 770 c-22 -4 159 -8 402 -9 285 0 444 3 448 9 7 12 -785 12
-850 0z"/>
<path d="M3948 773 c7 -3 16 -2 19 1 4 3 -2 6 -13 5 -11 0 -14 -3 -6 -6z"/>
</g>
</svg>
